<svg width="358" height="382" viewBox="0 0 358 382" fill="none" xmlns="http://www.w3.org/2000/svg">
<path d="M357.912 49.1139C357.425 47.8605 356.607 46.7625 355.546 45.9367C354.485 45.1109 353.219 44.5881 351.884 44.4239L224.484 32.4539C222.084 32.2359 216.446 31.7199 214.85 37.5979L199.494 143.28C199.561 143.92 199.807 144.528 200.204 145.034L149.196 165.486L130.098 90.0859C129.752 88.8336 129.16 87.6624 128.358 86.6398C127.556 85.6172 126.56 84.7635 125.426 84.1279C124.864 83.3539 117.978 80.5279 110.55 81.9539L7.57445 113.79C4.90451 114.703 2.67778 116.591 1.33955 119.075C0.00131357 121.56 -0.349786 124.458 0.356456 127.19L63.3565 373.312C64.5785 378.448 75.6845 383.966 83.1945 381.244L185.034 343.534C187.331 342.66 189.233 340.982 190.386 338.812C191.539 336.641 191.865 334.127 191.304 331.734L156.586 194.632C259.692 221.814 254.706 220.554 255.026 220.518C255.346 220.482 251.392 222.358 340.724 178.192C340.886 178.112 341.024 177.989 341.121 177.838C341.219 177.686 341.274 177.51 341.28 177.33L341.48 171.47C344.31 171.954 345.572 169.884 345.562 167.014C358.904 40.8379 358.048 49.4519 357.912 49.1139ZM149.832 167.376L201.586 146.64C202.454 147.367 203.503 147.845 204.62 148.024L337.074 170.714L254.354 211.014L154.52 186.506C149.308 165.932 149.622 167.472 149.832 167.376ZM184.338 341.648C77.4225 381.128 82.1385 379.358 81.9385 379.522C80.8045 379.791 79.6297 379.843 78.4765 379.674C77.0062 379.412 75.642 378.733 74.5462 377.718C73.4503 376.704 72.6688 375.396 72.2945 373.95L9.29046 127.806C8.7255 125.574 9.04414 123.21 10.1799 121.207C11.3157 119.204 13.1809 117.717 15.3865 117.056L118.586 85.2179C119.569 84.9317 120.599 84.8444 121.616 84.9611C122.633 85.0778 123.617 85.3961 124.509 85.8975C125.401 86.3988 126.185 87.0731 126.814 87.8809C127.442 88.6887 127.904 89.6137 128.17 90.6019L189.37 332.234C189.814 334.147 189.549 336.157 188.624 337.89C187.698 339.622 186.176 340.961 184.338 341.656V341.648ZM342.954 169.304C342.827 169.41 342.676 169.485 342.514 169.524C342.353 169.563 342.185 169.564 342.022 169.528C340.978 169.35 341.27 169.43 341.068 169.298C340.686 169.052 349.548 170.624 204.992 146.05C204.25 145.865 203.556 145.522 202.957 145.046C202.359 144.569 201.869 143.97 201.522 143.288L216.814 37.9979C217.858 34.1759 221.088 34.1399 224.336 34.4399L351.69 46.4059C352.621 46.5256 353.504 46.8856 354.254 47.4506C355.003 48.0156 355.592 48.766 355.962 49.6279C342.586 176.242 343.564 168.776 342.954 169.312V169.304Z" fill="#121D2F"/>
<path d="M225.206 43.2959C224.952 43.2709 224.698 43.3443 224.496 43.5008C224.294 43.6574 224.16 43.8854 224.12 44.1379L209.442 139.206C209.402 139.467 209.467 139.734 209.622 139.947C209.778 140.161 210.012 140.304 210.272 140.346C338.786 160.718 333.986 160.004 334.186 160.004C334.432 160.006 334.67 159.917 334.854 159.755C335.039 159.592 335.157 159.368 335.186 159.124C348.624 49.0159 347.804 56.1439 347.386 55.6319C346.968 55.1199 355.706 55.1199 225.206 43.2959ZM333.308 157.854L211.57 138.528L225.952 45.3759L345.48 57.1519L333.308 157.854Z" fill="#121D2F"/>
<path d="M162.568 167.66C272.116 191.776 267.368 190.716 267.568 190.716C267.874 190.716 264.998 191.8 309.496 173.706C309.698 173.625 309.867 173.48 309.979 173.294C310.091 173.108 310.139 172.891 310.117 172.675C310.094 172.459 310.002 172.256 309.854 172.097C309.706 171.938 309.51 171.832 309.296 171.794C188.696 150.952 196.708 152.27 196.296 152.428L162.416 165.752C162.217 165.83 162.047 165.971 161.934 166.153C161.82 166.335 161.768 166.548 161.785 166.762C161.802 166.976 161.887 167.179 162.028 167.341C162.169 167.502 162.359 167.614 162.568 167.66ZM277.032 184.448L176.042 162.542L180.842 160.654L284.924 181.56C282.366 182.71 279.729 183.675 277.032 184.448ZM188.398 157.682C188.598 157.758 183.486 156.784 294.84 177.518C287.476 180.518 288.356 180.21 288.082 180.154L184.282 159.304L188.398 157.682ZM196.76 154.392L305.5 173.172L297.586 176.398C297.502 176.23 277.04 172.168 191.882 156.312L196.76 154.392ZM172.688 163.86L274.278 185.898L267.478 188.672L166.204 166.412L172.688 163.86Z" fill="#121D2F"/>
<path d="M222.604 183.318C191.704 176.82 193.54 177.118 193.154 177.258L171.926 184.936C171.726 185.008 171.554 185.142 171.436 185.319C171.317 185.495 171.258 185.705 171.266 185.918C171.275 186.13 171.351 186.334 171.484 186.501C171.617 186.667 171.799 186.786 172.004 186.842C203.564 195.406 201.314 194.914 201.804 194.692L222.804 185.208C222.997 185.122 223.157 184.977 223.262 184.794C223.367 184.611 223.411 184.4 223.389 184.19C223.367 183.981 223.279 183.784 223.138 183.627C222.997 183.47 222.81 183.362 222.604 183.318ZM201.312 192.718L175.586 185.74L193.568 179.236L219.202 184.636L201.312 192.718Z" fill="#121D2F"/>
<path d="M238.996 87.512C257.08 89.658 300.302 94.712 316.5 96.098C318.458 96.217 320.385 95.5737 321.879 94.303C323.373 93.0323 324.317 91.2328 324.513 89.2815C324.709 87.3303 324.143 85.3788 322.932 83.8361C321.721 82.2934 319.96 81.2791 318.018 81.006C311.54 80.244 250.844 74.104 240.594 72.882C231.32 71.776 228.898 86.314 238.996 87.512ZM322.562 88.776C322.545 89.5209 322.376 90.2545 322.065 90.9317C321.754 91.6089 321.308 92.2154 320.754 92.7141C320.2 93.2128 319.55 93.5931 318.844 93.8318C318.138 94.0704 317.391 94.1623 316.648 94.102L294.682 91.67C295.304 86.27 296.046 83.84 296.106 80.782L317.786 82.994C319.168 83.1701 320.431 83.866 321.318 84.94C322.206 86.0141 322.65 87.3857 322.562 88.776Z" fill="#121D2F"/>
<path d="M281.256 129.478C275.022 133.38 265.43 129.262 263.984 119.494C264.158 119.573 264.35 119.601 264.539 119.574C264.728 119.548 264.905 119.468 265.05 119.344C265.195 119.22 265.301 119.057 265.357 118.874C265.412 118.692 265.414 118.497 265.362 118.314C264.284 114.99 264.138 114.256 264.256 113.556C264.408 112.652 262.698 111.136 261.95 112.442C260.996 114.233 260.279 116.14 259.816 118.116C259.759 118.371 259.804 118.638 259.941 118.86C260.078 119.083 260.297 119.242 260.55 119.306C260.803 119.369 261.072 119.331 261.297 119.199C261.522 119.067 261.687 118.852 261.756 118.6L261.848 118.24C262.536 130.202 274.336 136.166 282.318 131.174C282.543 131.033 282.703 130.809 282.763 130.55C282.822 130.291 282.776 130.02 282.635 129.795C282.495 129.57 282.27 129.41 282.012 129.351C281.753 129.291 281.481 129.337 281.256 129.478Z" fill="#121D2F"/>
<path d="M289.262 121.442C291.788 111.382 284.934 101.552 275.69 101.552C273.702 101.582 271.747 102.059 269.968 102.947C268.189 103.836 266.633 105.113 265.414 106.684C265.332 106.788 265.271 106.907 265.235 107.035C265.199 107.163 265.189 107.296 265.205 107.428C265.221 107.56 265.263 107.687 265.329 107.802C265.395 107.917 265.483 108.018 265.588 108.099C265.694 108.18 265.814 108.239 265.942 108.273C266.07 108.307 266.204 108.315 266.336 108.296C266.467 108.278 266.594 108.234 266.708 108.166C266.822 108.098 266.921 108.009 267 107.902C268.03 106.572 269.346 105.49 270.85 104.737C272.354 103.984 274.008 103.579 275.69 103.552C283.43 103.552 289.162 111.68 287.5 120.152C287.447 119.932 287.32 119.736 287.141 119.597C286.962 119.458 286.741 119.385 286.514 119.388C286.288 119.391 286.069 119.471 285.894 119.615C285.719 119.759 285.598 119.958 285.55 120.18L284.422 125.6C284.393 125.745 284.396 125.895 284.431 126.039C284.467 126.183 284.533 126.317 284.627 126.432C284.721 126.547 284.839 126.639 284.972 126.703C285.106 126.767 285.252 126.8 285.4 126.8C287.588 126.109 289.471 124.685 290.73 122.768C290.863 122.568 290.92 122.328 290.89 122.09C290.86 121.852 290.746 121.633 290.568 121.472C290.39 121.311 290.16 121.22 289.921 121.214C289.681 121.209 289.448 121.29 289.262 121.442Z" fill="#121D2F"/>
<path d="M120.814 97.8379C120.232 97.5099 126.996 95.5579 21.3424 129.374C21.0997 129.452 20.8957 129.619 20.7723 129.842C20.6489 130.065 20.6153 130.327 20.6784 130.574L75.5504 346.904C75.6844 347.426 76.1224 347.796 76.9504 347.514C82.1504 345.748 133.018 328.024 174.624 313.514C174.861 313.432 175.057 313.264 175.176 313.043C175.294 312.823 175.326 312.566 175.264 312.324C117.284 82.5759 121.404 98.1759 120.814 97.8379ZM77.2144 345.354L22.8484 130.992L119.62 99.9919L173.106 311.916L77.2144 345.354Z" fill="#121D2F"/>
<path d="M69.9725 108.746C70.3937 108.746 70.8056 108.621 71.1558 108.387C71.5061 108.153 71.7791 107.82 71.9403 107.431C72.1015 107.042 72.1437 106.614 72.0615 106.2C71.9794 105.787 71.7765 105.408 71.4786 105.11C71.1807 104.812 70.8012 104.609 70.388 104.527C69.9748 104.445 69.5466 104.487 69.1573 104.648C68.7681 104.809 68.4355 105.082 68.2014 105.433C67.9674 105.783 67.8425 106.195 67.8425 106.616C67.8435 107.181 68.0683 107.722 68.4675 108.121C68.8667 108.52 69.4079 108.745 69.9725 108.746Z" fill="#121D2F"/>
<path d="M138.43 335.478C131.702 329.436 121.908 335.36 123.006 344.84C123.186 347.35 124.274 349.71 126.066 351.476C127.859 353.243 130.234 354.297 132.746 354.44C141.838 354.438 145.426 341.776 138.43 335.478ZM133.524 352.392C129.174 352.896 125.524 349.156 124.992 344.61C124.11 336.976 131.726 332.14 137.094 336.976C142.462 341.812 140.308 351.608 133.524 352.392V352.392Z" fill="#121D2F"/>
<path d="M54.5065 207.066C47.1205 209.666 48.4445 221.118 56.8005 221.118C58.5305 221.118 53.5065 223.332 133.084 195.624C141.98 192.528 137.434 178.442 128.138 181.542C128.138 181.542 70.2605 201.502 54.5065 207.066ZM133.04 183.776C133.952 184.285 134.701 185.041 135.201 185.956C135.701 186.872 135.933 187.911 135.869 188.952C135.805 189.994 135.448 190.996 134.84 191.844C134.231 192.692 133.395 193.35 132.428 193.744L111.102 200.976C110.402 198.552 108.626 193.06 107.852 190.694L128.252 183.62C129.011 183.284 129.835 183.124 130.664 183.151C131.493 183.178 132.306 183.392 133.04 183.776V183.776Z" fill="#121D2F"/>
<path d="M107.684 227.75C110.211 227.707 112.714 228.24 115.003 229.309C117.293 230.378 119.309 231.954 120.898 233.918C120.978 234.025 121.079 234.114 121.194 234.182C121.309 234.249 121.437 234.293 121.569 234.31C121.701 234.327 121.836 234.318 121.964 234.283C122.093 234.247 122.213 234.186 122.318 234.104C122.423 234.021 122.51 233.918 122.574 233.802C122.639 233.685 122.679 233.556 122.693 233.424C122.707 233.291 122.695 233.157 122.656 233.029C122.617 232.901 122.554 232.783 122.468 232.68C120.69 230.476 118.433 228.707 115.869 227.506C113.304 226.305 110.5 225.704 107.668 225.75C93.6925 226.054 84.4505 241.762 89.5505 256.132C89.0478 255.651 88.58 255.135 88.1505 254.588C88.071 254.481 87.971 254.391 87.8563 254.323C87.7416 254.256 87.6146 254.212 87.4826 254.194C87.3507 254.176 87.2165 254.184 87.0879 254.219C86.9593 254.254 86.8389 254.314 86.7338 254.395C86.6287 254.477 86.541 254.579 86.4759 254.695C86.4107 254.811 86.3694 254.939 86.3544 255.072C86.3393 255.204 86.3509 255.338 86.3883 255.466C86.4258 255.594 86.4884 255.713 86.5725 255.816C87.886 257.486 89.497 258.899 91.3245 259.984C91.5245 260.332 91.7245 260.718 92.3245 260.718C92.4186 260.718 92.5123 260.705 92.6025 260.678C92.9045 260.826 93.2025 260.964 93.5185 261.092C93.6862 261.162 93.8699 261.185 94.0497 261.158C94.2294 261.131 94.3985 261.056 94.5388 260.941C94.679 260.825 94.7851 260.673 94.8457 260.502C94.9062 260.331 94.919 260.146 94.8825 259.968L93.3025 252.29C93.2762 252.161 93.2248 252.039 93.1513 251.93C93.0778 251.821 92.9836 251.728 92.874 251.656C92.7644 251.583 92.6417 251.533 92.5127 251.508C92.3838 251.483 92.2512 251.484 92.1225 251.51C91.9938 251.536 91.8715 251.588 91.7627 251.661C91.6538 251.735 91.5605 251.829 91.4881 251.938C91.4156 252.048 91.3655 252.171 91.3405 252.3C91.3155 252.429 91.3162 252.561 91.3425 252.69L92.3805 257.728C86.0105 244.776 93.8965 228.05 107.684 227.75Z" fill="#121D2F"/>
<path d="M127.53 240.724C127.435 240.548 127.289 240.406 127.112 240.314C126.934 240.222 126.733 240.185 126.535 240.209C126.336 240.232 126.149 240.315 125.998 240.445C125.847 240.576 125.738 240.749 125.686 240.942L125.556 241.424C125.345 241.521 125.174 241.69 125.073 241.899C124.972 242.109 124.948 242.348 125.004 242.574C125.162 243.2 125.308 242.33 123.428 249.296C123.359 249.552 123.395 249.825 123.527 250.055C123.659 250.286 123.877 250.454 124.133 250.523C124.39 250.592 124.663 250.557 124.893 250.425C125.123 250.292 125.291 250.074 125.36 249.818L125.65 248.744C125.3 263.508 111.198 272.58 100.05 266.08C99.8219 265.96 99.556 265.934 99.3083 266.006C99.0606 266.077 98.8502 266.242 98.7211 266.466C98.5921 266.689 98.5543 266.953 98.6156 267.204C98.677 267.454 98.8328 267.672 99.0504 267.81C112.384 275.582 129.45 263.566 127.524 245.362C128.058 246.658 128.499 247.99 128.844 249.348C128.914 249.6 129.078 249.815 129.304 249.947C129.529 250.079 129.797 250.117 130.051 250.054C130.304 249.991 130.523 249.831 130.66 249.608C130.797 249.386 130.842 249.119 130.784 248.864C130.044 246.025 128.95 243.291 127.53 240.724V240.724Z" fill="#121D2F"/>
<path d="M307.682 216.762C307.557 216.801 307.441 216.865 307.34 216.949C307.24 217.034 307.156 217.137 307.096 217.253C307.035 217.37 306.998 217.497 306.986 217.628C306.975 217.759 306.989 217.891 307.028 218.016C310.731 229.852 311.716 242.37 309.911 254.639C308.106 266.908 303.557 278.612 296.603 288.88C289.649 299.148 280.468 307.715 269.745 313.944C259.021 320.172 247.031 323.902 234.666 324.856C234.666 324.456 234.532 318.838 234.438 318.43C234.481 318.245 234.471 318.052 234.408 317.873C234.345 317.693 234.232 317.536 234.083 317.418C233.934 317.301 233.754 317.228 233.566 317.209C233.377 317.19 233.186 317.225 233.016 317.31C228.499 319.588 224.099 322.092 219.832 324.812C219.692 324.9 219.577 325.022 219.495 325.166C219.414 325.311 219.37 325.473 219.367 325.638C219.363 325.804 219.401 325.968 219.477 326.115C219.553 326.262 219.664 326.388 219.8 326.482C224.118 329.437 228.713 331.964 233.52 334.028C233.677 334.097 233.849 334.124 234.02 334.107C234.19 334.091 234.354 334.031 234.494 333.933C234.635 333.835 234.748 333.702 234.822 333.548C234.897 333.394 234.931 333.223 234.92 333.052C234.822 331.29 234.768 329.1 234.72 326.852C247.396 325.893 259.691 322.085 270.69 315.711C281.688 309.338 291.106 300.564 298.242 290.044C305.377 279.524 310.045 267.529 311.899 254.953C313.752 242.377 312.743 229.545 308.946 217.414C308.907 217.288 308.843 217.171 308.758 217.069C308.673 216.968 308.568 216.885 308.451 216.824C308.333 216.763 308.205 216.727 308.073 216.716C307.941 216.705 307.808 216.721 307.682 216.762Z" fill="#121D2F"/>
<path d="M62.4825 63.322C62.6092 63.3565 62.7415 63.3658 62.8718 63.3492C63.0021 63.3326 63.1278 63.2905 63.2419 63.2254C63.3559 63.1602 63.456 63.0731 63.5364 62.9693C63.6168 62.8654 63.6759 62.7467 63.7104 62.62C67.0027 50.6192 72.9697 39.5198 81.1638 30.1542C89.3579 20.7887 99.5664 13.4002 111.023 8.54296C122.481 3.68576 134.889 1.48596 147.317 2.10858C159.746 2.73119 171.872 6.16005 182.786 12.138C181.65 13.938 180.318 16.036 179.35 17.738C179.187 17.8587 179.065 18.0263 178.999 18.2184C178.933 18.4105 178.928 18.618 178.983 18.8134C179.038 19.0087 179.151 19.1827 179.308 19.3121C179.464 19.4415 179.656 19.5203 179.858 19.538C184.672 19.976 189.378 20.258 195.036 20.444C195.206 20.4518 195.375 20.4161 195.528 20.3404C195.68 20.2647 195.81 20.1515 195.907 20.0113C196.003 19.8712 196.062 19.7088 196.078 19.5396C196.094 19.3703 196.067 19.1997 195.998 19.044C193.935 14.2364 191.407 9.64135 188.452 5.32396C188.354 5.18011 188.22 5.06442 188.064 4.98831C187.907 4.91221 187.733 4.87834 187.559 4.89006C187.386 4.90178 187.218 4.95868 187.073 5.05513C186.928 5.15158 186.81 5.28423 186.732 5.43996C186.002 6.89996 184.962 8.63996 183.85 10.426C172.67 4.28567 160.243 0.758515 147.504 0.1094C134.765 -0.539715 122.045 1.70608 110.298 6.67812C98.551 11.6502 88.0836 19.2192 79.6815 28.8167C71.2795 38.4143 65.1613 49.7908 61.7865 62.092C61.7158 62.3474 61.7495 62.6203 61.8799 62.851C62.0104 63.0816 62.2271 63.251 62.4825 63.322Z" fill="#121D2F"/>
</svg>
