<svg width="364" height="383" viewBox="0 0 364 383" fill="none" xmlns="http://www.w3.org/2000/svg">
<path d="M219.316 62.7225C217.672 61.7765 215.604 65.7665 217.386 66.5065C219.376 67.3325 220.928 63.4465 219.316 62.7225Z" fill="#121D2F"/>
<path d="M225.576 71.2984C227.396 72.1604 229.194 68.2404 227.506 67.5144C225.498 66.7324 223.98 70.5424 225.576 71.2984Z" fill="#121D2F"/>
<path d="M222.03 72.3405C221.2 72.4005 219.23 71.9705 219.268 73.3405C219.256 74.9005 221.868 74.1905 223.19 74.3405C223.339 74.3405 223.485 74.3075 223.619 74.244C223.753 74.1804 223.871 74.0879 223.965 73.973C224.059 73.8581 224.126 73.7239 224.162 73.5799C224.197 73.4359 224.2 73.2858 224.17 73.1405C223.746 71.0815 223.955 68.9421 224.77 67.0045C224.824 66.8843 224.853 66.7548 224.857 66.6233C224.86 66.4918 224.838 66.3609 224.791 66.238C224.744 66.1152 224.673 66.003 224.582 65.9076C224.491 65.8123 224.383 65.7358 224.262 65.6825C222 65.0485 221.886 70.7565 222.03 72.3405Z" fill="#121D2F"/>
<path d="M210.514 74.8124C210.488 75.076 210.568 75.3392 210.735 75.5443C210.903 75.7494 211.145 75.8797 211.408 75.9064C213.5 76.2056 215.508 76.9291 217.31 78.0324C217.542 78.1613 217.816 78.1929 218.071 78.1201C218.326 78.0473 218.542 77.8762 218.67 77.6444C218.799 77.4126 218.831 77.1391 218.758 76.8841C218.685 76.629 218.514 76.4133 218.282 76.2844C217.256 75.7404 211.108 72.3544 210.514 74.8124Z" fill="#121D2F"/>
<path d="M250.822 50.5265C256.014 46.592 261.726 43.3956 267.794 41.0285C268.043 40.9364 268.245 40.7493 268.356 40.5084C268.467 40.2674 268.477 39.9922 268.385 39.7435C268.293 39.4947 268.106 39.2927 267.865 39.1818C267.624 39.071 267.349 39.0604 267.1 39.1525C265.116 39.5365 245.442 49.1125 250.822 50.5265Z" fill="#121D2F"/>
<path d="M256.786 60.8344C256.796 60.9657 256.832 61.0938 256.891 61.2112C256.951 61.3287 257.033 61.4332 257.133 61.5189C257.233 61.6046 257.349 61.6696 257.474 61.7104C257.599 61.7512 257.731 61.7668 257.862 61.7564L278.54 60.1824C278.804 60.162 279.05 60.0376 279.222 59.8367C279.395 59.6357 279.48 59.3745 279.46 59.1104C279.437 58.8471 279.312 58.6033 279.111 58.431C278.91 58.2588 278.65 58.1717 278.386 58.1884L257.716 59.7624C257.585 59.7713 257.456 59.8061 257.338 59.8649C257.22 59.9237 257.115 60.0052 257.028 60.1049C256.942 60.2045 256.876 60.3203 256.835 60.4455C256.793 60.5707 256.777 60.7029 256.786 60.8344Z" fill="#121D2F"/>
<path d="M270.172 76.8645L260.74 74.4025C260.484 74.3351 260.211 74.3725 259.982 74.5064C259.752 74.6403 259.586 74.8597 259.518 75.1165C259.451 75.3732 259.488 75.6462 259.622 75.8753C259.756 76.1045 259.976 76.2711 260.232 76.3385L269.668 78.8105C269.927 78.8773 270.201 78.8389 270.43 78.7037C270.66 78.5685 270.827 78.3475 270.893 78.0895C270.96 77.8314 270.922 77.5574 270.787 77.3276C270.651 77.0979 270.431 76.9313 270.172 76.8645V76.8645Z" fill="#121D2F"/>
<path d="M70.9685 110.538C70.7054 110.573 70.4666 110.71 70.3048 110.92C70.143 111.13 70.0713 111.396 70.1055 111.659C70.1397 111.923 70.277 112.161 70.4872 112.323C70.6975 112.485 70.9634 112.557 71.2265 112.522C78.2425 112 84.9105 115.722 84.1505 124.16C84.1358 124.3 84.1509 124.442 84.1945 124.575C84.2382 124.709 84.3095 124.832 84.4039 124.936C84.4982 125.04 84.6135 125.123 84.7421 125.18C84.8708 125.236 85.0099 125.265 85.1505 125.264C85.3983 125.266 85.6378 125.175 85.8226 125.01C86.0074 124.845 86.1242 124.617 86.1505 124.37C86.9885 114.448 79.2425 109.734 70.9685 110.538Z" fill="#121D2F"/>
<path d="M355.74 124.908H287.248C287.448 124.606 287.248 8.08844 287.318 7.73844C287.329 6.71913 287.136 5.70794 286.751 4.76415C286.366 3.82037 285.796 2.96299 285.075 2.24228C284.354 1.52157 283.497 0.952036 282.553 0.567075C281.609 0.182114 280.598 -0.0105276 279.578 0.000443834H24.5944C23.575 -0.0105322 22.5636 0.182173 21.6195 0.567257C20.6755 0.952342 19.8179 1.52205 19.097 2.24298C18.3761 2.9639 17.8063 3.82152 17.4213 4.76554C17.0362 5.70956 16.8435 6.72096 16.8544 7.74044V168.368C16.8435 169.388 17.0362 170.399 17.4213 171.343C17.8063 172.287 18.3761 173.145 19.097 173.866C19.8179 174.587 20.6755 175.157 21.6195 175.542C22.5636 175.927 23.575 176.119 24.5944 176.108H115.864C114.278 182.066 112.972 188.076 111.864 194.108H7.74044C6.72096 194.097 5.70955 194.29 4.76554 194.675C3.82152 195.06 2.9639 195.63 2.24298 196.351C1.52205 197.072 0.952343 197.93 0.567258 198.874C0.182174 199.818 -0.0105322 200.829 0.000443832 201.848V276.202C-0.0105322 277.222 0.182174 278.233 0.567258 279.177C0.952343 280.121 1.52205 280.979 2.24298 281.7C2.9639 282.421 3.82152 282.991 4.76554 283.376C5.70955 283.761 6.72096 283.953 7.74044 283.942H96.8984C89.2624 311.692 77.9344 333.082 62.5184 348.968C62.4193 349.07 62.343 349.192 62.2948 349.326C62.2465 349.46 62.2273 349.602 62.2384 349.744C62.2496 349.886 62.2909 350.024 62.3595 350.148C62.4281 350.273 62.5226 350.381 62.6364 350.466L63.5044 351.112L58.5404 355.638C57.6142 356.281 56.856 357.137 56.3297 358.134C55.8034 359.13 55.5245 360.239 55.5164 361.366C55.8499 362.529 56.4608 363.594 57.2964 364.468C62.5684 370.654 68.8724 377.35 76.9584 378.504C80.0724 379.216 84.7584 377.124 83.4964 373.388C80.9184 371.27 78.2824 370.212 76.3424 366.988C74.3864 364.47 72.1944 361.768 73.6004 358.644C76.6504 361.644 96.6604 344.074 99.0004 341.14C131.2 306.894 148.104 267.264 153.764 212.75L161.198 212.936C162.384 215.536 163.522 218.174 164.644 220.816C164.016 221.272 164.22 219.088 164.22 253.738C164.209 254.758 164.402 255.769 164.787 256.713C165.171 257.657 165.741 258.515 166.462 259.236C167.182 259.957 168.04 260.526 168.984 260.912C169.928 261.297 170.939 261.489 171.958 261.478H179.346C189.992 296.05 196.99 331.776 202.876 364.222C203.224 366.056 206.798 364.246 207.128 365.2C207.508 372.426 206.128 382.314 215.128 382C221.214 381.306 227.231 380.097 233.112 378.386C235.282 377.626 238.812 377.398 240.44 375.836C243.984 372.436 241.454 367.954 236.286 368.216C231.926 367.362 219.624 369.714 220.25 362.83C220.994 362.642 222.084 362.604 222.168 361.644C224.524 328.236 223.465 294.674 219.008 261.48H355.74C356.76 261.491 357.771 261.299 358.715 260.914C359.659 260.529 360.517 259.959 361.238 259.238C361.959 258.517 362.529 257.659 362.914 256.715C363.299 255.771 363.491 254.76 363.48 253.74V132.648C363.491 131.629 363.299 130.618 362.914 129.674C362.529 128.73 361.959 127.872 361.238 127.151C360.517 126.43 359.659 125.86 358.715 125.475C357.771 125.09 356.76 124.897 355.74 124.908V124.908ZM81.6844 374.382C81.8624 376.464 78.7164 376.782 77.3024 376.534C69.6744 375.392 61.9724 368.022 57.4864 361C57.0684 358.506 63.5284 354.224 65.1144 352.314L71.9824 357.432C71.5151 358.244 71.2307 359.147 71.1492 360.08C71.0677 361.013 71.1909 361.952 71.5104 362.832C73.4793 367.734 77.0707 371.811 81.6844 374.382V374.382ZM104.798 243.982H100.18V235.996C100.18 235.731 100.075 235.477 99.8876 235.289C99.7 235.102 99.4457 234.996 99.1804 234.996C98.9152 234.996 98.6609 235.102 98.4733 235.289C98.2858 235.477 98.1804 235.731 98.1804 235.996V243.982H88.7204V219.382C88.7204 219.117 88.6151 218.863 88.4275 218.675C88.24 218.488 87.9857 218.382 87.7204 218.382C87.4552 218.382 87.2009 218.488 87.0133 218.675C86.8258 218.863 86.7204 219.117 86.7204 219.382V244.982C86.7204 245.248 86.8258 245.502 87.0133 245.69C87.2009 245.877 87.4552 245.982 87.7204 245.982H98.1804V257.782C98.1804 258.048 98.2858 258.302 98.4733 258.49C98.6609 258.677 98.9152 258.782 99.1804 258.782C99.4457 258.782 99.7 258.677 99.8876 258.49C100.075 258.302 100.18 258.048 100.18 257.782V245.982H104.524C102.889 258.105 100.517 270.117 97.4204 281.95H7.74044C6.98194 281.968 6.22782 281.831 5.52363 281.549C4.81943 281.266 4.17978 280.844 3.6433 280.308C3.10682 279.771 2.68465 279.131 2.40228 278.427C2.11992 277.723 1.98322 276.969 2.00044 276.21V201.842C1.98322 201.084 2.11992 200.33 2.40228 199.626C2.68465 198.921 3.10682 198.282 3.6433 197.745C4.17978 197.209 4.81943 196.787 5.52363 196.504C6.22782 196.222 6.98194 196.085 7.74044 196.102H111.482C108.614 212.214 107.056 227.896 104.798 243.976V243.982ZM116.376 174.114H24.5944C23.8359 174.132 23.0818 173.995 22.3776 173.713C21.6734 173.43 21.0338 173.008 20.4973 172.472C19.9608 171.935 19.5386 171.295 19.2563 170.591C18.9739 169.887 18.8372 169.133 18.8544 168.374V7.74044C18.8372 6.98194 18.9739 6.22782 19.2563 5.52363C19.5386 4.81943 19.9608 4.17978 20.4973 3.6433C21.0338 3.10682 21.6734 2.68465 22.3776 2.40228C23.0818 2.11992 23.8359 1.98322 24.5944 2.00044H279.578C280.337 1.98322 281.091 2.11992 281.795 2.40228C282.499 2.68465 283.139 3.10682 283.676 3.6433C284.212 4.17978 284.634 4.81943 284.917 5.52363C285.199 6.22782 285.336 6.98194 285.318 7.74044C285.318 8.14044 285.238 124.572 285.388 124.908H215.188C216.292 122.516 217.356 120.096 218.378 117.646C232.686 122.604 248.048 123.701 262.914 120.826C281.41 117.384 272.338 100.178 265.534 92.0384C257.266 82.537 248.348 73.6209 238.844 65.3544C238.132 61.5342 236.254 58.0283 233.468 55.3184C233.468 55.0584 233.468 54.7964 233.452 54.5384C233.955 54.4062 234.424 54.1666 234.825 53.8361C235.226 53.5056 235.552 53.0921 235.778 52.624C236.004 52.1559 236.126 51.6443 236.136 51.1244C236.146 50.6046 236.043 50.0887 235.834 49.6124C237.42 49.0844 239.128 47.9704 238.256 45.9344C237.53 44.6787 236.634 43.5286 235.594 42.5164C235.406 42.3343 235.153 42.2335 234.891 42.2358C234.629 42.238 234.378 42.3432 234.193 42.5286C234.007 42.714 233.902 42.9648 233.9 43.227C233.898 43.4892 233.998 43.7418 234.18 43.9304C234.904 44.7304 236.304 46.0604 236.482 46.9884C236.548 47.3244 234.096 47.8904 233.904 48.6844C233.396 49.7224 234.288 50.4844 234.172 51.4224C232.91 53.7784 233.142 50.5384 232.696 49.4924C232.37 48.9698 232.122 48.4016 231.962 47.8064C232.39 47.4724 232.735 47.0436 232.969 46.5537C233.203 46.0639 233.32 45.5264 233.311 44.9835C233.303 44.4407 233.168 43.9073 232.918 43.4254C232.668 42.9435 232.309 42.5263 231.87 42.2064C232.141 41.426 232.169 40.582 231.952 39.7851C231.735 38.9882 231.282 38.2755 230.652 37.7404C232.068 35.9564 230.372 33.6884 228.72 32.8644C225.786 31.759 222.724 31.0292 219.606 30.6924C219.114 30.0887 218.456 29.6416 217.713 29.4057C216.97 29.1699 216.175 29.1555 215.424 29.3644C214.116 29.7024 213.424 29.7644 213.378 29.2224C213.178 26.8224 210.664 26.3464 208.59 27.4404C206.696 28.4479 204.947 29.7074 203.39 31.1844C200.364 28.8384 197.218 31.7324 196.228 33.0124C195.366 34.1284 195.474 32.9024 194.112 33.4684C193.124 33.6884 190.688 36.9704 192.374 37.7804C192.496 37.8304 192.627 37.8559 192.758 37.8554C192.89 37.8549 193.02 37.8284 193.141 37.7775C193.262 37.7266 193.373 37.6522 193.465 37.5587C193.558 37.4652 193.631 37.3543 193.68 37.2324C194.28 35.7604 194.494 35.4824 194.842 35.3564C195.878 35.7924 196.718 35.4984 197.736 34.3284C200.536 31.2904 201.136 32.1964 202.982 33.2724C203.543 33.528 204.151 33.6621 204.767 33.6659C205.383 33.6697 205.993 33.5431 206.556 33.2944C207.002 32.9724 209.032 33.8164 209.09 34.4004C209.666 36.3084 212.118 36.4004 213.116 36.4304C213.404 36.4424 214.504 37.1784 214.416 37.8304C214.403 38.7406 214.742 39.6208 215.361 40.2883C215.98 40.9557 216.832 41.359 217.74 41.4144C217.94 41.4144 218.17 42.1624 217.83 42.6144C216.776 44.0304 218.392 45.6864 219.49 46.2144C219.29 46.8044 218.49 46.3704 218.29 47.2804C218.227 47.5373 218.266 47.8088 218.401 48.0369C218.535 48.2649 218.753 48.4313 219.008 48.5004C220.848 49.1484 222.554 45.4324 220.826 44.6604C220.337 44.4178 219.878 44.1198 219.456 43.7724C219.762 43.328 219.946 42.8116 219.99 42.2742C220.035 41.7368 219.938 41.1971 219.71 40.7084C219.128 39.2004 217.644 39.7664 216.71 38.8124C216.607 38.7052 216.526 38.5778 216.473 38.4381C216.421 38.2985 216.397 38.1495 216.404 38.0004C216.383 37.1055 216.037 36.2489 215.431 35.5899C214.825 34.931 214 34.5147 213.11 34.4184C211.818 34.3744 211.1 34.1724 211 33.8184C210.58 32.9568 209.898 32.25 209.051 31.799C208.205 31.3479 207.238 31.1755 206.288 31.3064C207.762 30.3064 209.678 28.5524 211.196 28.9684C211.248 28.9984 211.36 29.0624 211.378 29.3544C211.526 31.5544 213.648 31.9364 215.964 31.2844C216.215 31.1923 216.483 31.1593 216.748 31.188C217.014 31.2166 217.269 31.3062 217.494 31.4496C217.719 31.5931 217.907 31.7865 218.045 32.015C218.183 32.2434 218.266 32.5006 218.288 32.7664C218.25 35.6404 220.19 35.9764 221.472 36.1984C221.872 36.3085 222.22 36.5546 222.457 36.8943C222.694 37.2339 222.805 37.6457 222.77 38.0584C222.598 38.8846 222.722 39.7449 223.12 40.4892C223.517 41.2335 224.164 41.8144 224.946 42.1304C225.222 42.2418 225.482 42.3898 225.718 42.5704C225.33 42.794 224.997 43.1039 224.747 43.4762C224.497 43.8485 224.336 44.2733 224.276 44.7178C224.216 45.1623 224.259 45.6146 224.402 46.0399C224.544 46.4651 224.783 46.8519 225.098 47.1704C225.38 47.4004 225.098 47.7844 224.882 47.8104C224.619 47.8436 224.38 47.98 224.217 48.1897C224.054 48.3993 223.981 48.6651 224.014 48.9284C224.048 49.1918 224.184 49.4312 224.394 49.594C224.603 49.7568 224.869 49.8296 225.132 49.7964C225.585 49.7291 226.008 49.534 226.354 49.234C226.699 48.9339 226.951 48.5416 227.081 48.103C227.21 47.6645 227.212 47.198 227.085 46.7585C226.959 46.3191 226.709 45.9249 226.366 45.6224C226.308 45.5753 226.265 45.5129 226.24 45.4422C226.216 45.3715 226.212 45.2954 226.228 45.2224C226.428 44.0044 227.936 43.8944 227.702 42.4724C227.604 41.9442 227.358 41.4548 226.993 41.0608C226.627 40.6668 226.158 40.3844 225.638 40.2464C224.968 39.9984 224.65 39.6164 224.762 38.2104C224.842 37.2988 224.587 36.3893 224.044 35.6527C223.5 34.9162 222.707 34.4033 221.812 34.2104C220.508 33.9844 220.274 33.9424 220.288 32.7784C222.886 33.1102 225.436 33.7411 227.888 34.6584C228.217 34.8159 228.505 35.0471 228.729 35.334C228.953 35.6209 229.109 35.9557 229.182 36.3124C229.166 36.4944 228.836 36.6124 228.64 36.6664C228.444 36.7212 228.269 36.8347 228.139 36.9919C228.008 37.149 227.929 37.3422 227.912 37.5455C227.895 37.7489 227.94 37.9526 228.042 38.1294C228.144 38.3061 228.298 38.4475 228.482 38.5344C229.2 38.8664 230.87 40.6984 229.816 41.5944C229.682 41.6957 229.576 41.8293 229.507 41.9827C229.438 42.1362 229.408 42.3045 229.422 42.4722C229.435 42.6399 229.491 42.8015 229.583 42.9421C229.675 43.0827 229.802 43.1977 229.95 43.2764C230.364 43.4385 230.718 43.7247 230.962 44.0957C231.207 44.4667 231.331 44.9043 231.316 45.3484C231.278 46.5064 229.574 46.1484 229.348 47.2004C229.07 48.0584 230.464 48.4804 230.316 49.2224C230.07 50.1804 228.316 49.9864 228.774 51.3304C229.148 52.4044 230.47 51.8844 231.068 51.4064C231.806 55.7969 231.498 60.2995 230.168 64.5484C229.784 63.8932 229.231 63.352 228.568 62.9804C228.452 62.9186 228.325 62.8802 228.195 62.8674C228.064 62.8546 227.932 62.8678 227.806 62.906C227.68 62.9443 227.563 63.0069 227.462 63.0904C227.36 63.1738 227.276 63.2765 227.214 63.3924C227.153 63.5084 227.114 63.6354 227.101 63.7662C227.089 63.897 227.102 64.029 227.14 64.1548C227.178 64.2805 227.241 64.3975 227.324 64.499C227.408 64.6005 227.51 64.6846 227.626 64.7464C228.317 65.2798 228.791 66.0461 228.959 66.9026C229.127 67.759 228.978 68.6474 228.54 69.4024C225.654 77.2524 218.236 86.0024 209.558 81.7084C209.446 81.639 209.321 81.5926 209.19 81.5719C209.059 81.5512 208.926 81.5567 208.797 81.5879C208.669 81.6192 208.548 81.6756 208.441 81.754C208.335 81.8323 208.245 81.9311 208.176 82.0444C207.044 83.9164 202.468 89.3584 200.062 92.3024C198.152 85.1224 196.482 78.2004 194.99 71.2904C196.779 69.4887 198.461 67.5834 200.026 65.5844C200.172 65.1004 200.522 65.3264 200.946 65.2604C201.844 65.0344 201.396 63.4604 200.496 63.6864C198.924 63.9124 198.25 61.6664 197.8 60.5424C197.373 59.0919 197.426 57.5418 197.953 56.1242C198.48 54.7066 199.451 53.4977 200.722 52.6784C201.828 51.9804 203.866 52.4544 203.866 54.0264C203.866 54.4764 204.316 54.7004 204.764 54.7004C204.99 54.7004 205.222 54.2524 205.214 53.8024C205.148 49.7344 199.924 49.9224 198.026 52.6804C196.873 54.1083 196.176 55.8507 196.026 57.6804C193.654 57.4804 192.91 59.8124 193.164 61.6644C193.18 62.0964 193.196 62.5424 193.212 62.6924C192.334 62.9544 190.98 62.6224 190.3 63.5184C190.16 63.7012 190.062 63.9125 190.012 64.1374C189.962 64.3624 189.962 64.5956 190.012 64.8204C190.124 65.4504 189.068 65.8964 189.028 65.9104C188.81 65.9941 188.627 66.1518 188.513 66.3561C188.399 66.5604 188.36 66.7983 188.403 67.0284C188.446 67.2586 188.568 67.4663 188.749 67.6154C188.929 67.7645 189.156 67.8456 189.39 67.8444C190.106 67.7196 190.756 67.354 191.235 66.8084C191.714 66.2627 191.992 65.5697 192.022 64.8444C197.554 64.9584 193.584 59.3344 196.07 59.6924C196.27 61.497 197.08 63.1793 198.366 64.4604C197.18 65.9804 195.834 67.4984 194.446 68.9584C194.376 68.7713 194.25 68.6097 194.087 68.4945C193.923 68.3793 193.729 68.3159 193.528 68.3124C192.166 68.1554 190.786 68.2717 189.468 68.6544C181.489 67.2359 173.422 66.3672 165.324 66.0544V62.8824H173.984C174.25 62.8824 174.504 62.7771 174.692 62.5896C174.879 62.402 174.984 62.1477 174.984 61.8824C174.984 61.6172 174.879 61.3629 174.692 61.1753C174.504 60.9878 174.25 60.8824 173.984 60.8824H165.34V52.8964C165.34 52.6312 165.235 52.3769 165.048 52.1893C164.86 52.0018 164.606 51.8964 164.34 51.8964C164.075 51.8964 163.821 52.0018 163.633 52.1893C163.446 52.3769 163.34 52.6312 163.34 52.8964V60.8824H153.88V36.2704C153.88 36.0052 153.775 35.7509 153.588 35.5633C153.4 35.3758 153.146 35.2704 152.88 35.2704C152.615 35.2704 152.361 35.3758 152.173 35.5633C151.986 35.7509 151.88 36.0052 151.88 36.2704V61.8824C151.88 62.1477 151.986 62.402 152.173 62.5896C152.361 62.7771 152.615 62.8824 152.88 62.8824H163.34V65.9804C156.006 65.6686 148.679 66.7385 141.74 69.1344V34.6984C141.74 34.4332 141.635 34.1789 141.448 33.9913C141.26 33.8038 141.006 33.6984 140.74 33.6984C117.034 34.6524 117.572 33.4144 117.06 35.1884V75.1364C117.06 75.4017 117.166 75.656 117.353 75.8436C117.541 76.0311 117.795 76.1364 118.06 76.1364H124.484C116.531 79.8665 109.426 85.1873 103.608 91.7704C101.701 93.6629 100.322 96.0215 99.6086 98.6119C98.895 101.202 98.8715 103.934 99.5404 106.536C103.191 123.412 109.084 139.723 117.06 155.036C116.994 155.194 116.92 155.35 116.86 155.516C112.902 152.832 96.5184 139.934 91.7184 136.404C102.498 121.828 91.1564 99.8044 72.8864 100.204C66.7864 100.213 60.9386 102.64 56.6253 106.953C52.3119 111.267 49.8849 117.114 49.8764 123.214C49.7864 144.602 77.1004 154.3 90.5124 138.002C95.3484 141.584 106.222 150.122 111.688 154.218C111.388 155.618 111.438 157.069 111.832 158.444C111.105 158.417 110.394 158.671 109.848 159.152C106.658 162.582 113.016 166.152 116.278 165.842C117.318 165.97 118.516 165.042 118.702 166.442C117.838 168.962 117.102 171.542 116.376 174.108V174.114ZM230.63 69.5144C232.074 65.8571 233 62.016 233.38 58.1024C234.718 59.8484 239.22 67.2864 235.818 69.8744C235.076 70.4187 234.27 70.8701 233.418 71.2184L230.63 69.5144ZM235.672 86.2984C237.97 94.5104 237.756 92.6004 231.052 89.3144C210.692 78.8304 222.622 89.0904 229.864 71.3904L231.464 72.3684C232.774 76.8124 234.74 81.5104 235.672 86.2864V86.2984ZM209.672 87.5824C208.983 89.2532 207.743 90.6379 206.158 91.5064C206.088 91.2852 205.943 91.0954 205.747 90.9696C205.552 90.8439 205.319 90.7899 205.089 90.8171C204.858 90.8443 204.644 90.951 204.483 91.1187C204.323 91.2864 204.226 91.5049 204.208 91.7364L204.182 92.4764C200.37 93.7004 202.606 92.9724 208.782 84.6764C209.046 85.4724 209.642 87.2824 209.68 87.5704L209.672 87.5824ZM196.788 87.6424C195.922 87.4424 195.894 88.7604 195.468 87.8304C192.164 82.7444 189.36 76.6684 190.304 70.4564C191.092 70.2809 191.901 70.2282 192.704 70.3004C193.94 76.0244 195.306 81.7684 196.796 87.6304L196.788 87.6424ZM139.74 35.7084V69.7884C136.368 70.9564 132.774 72.4144 128.96 74.1364H119.05V36.0584C122.018 35.9284 132.264 35.7864 139.74 35.7084ZM118.082 161.318C119.16 159.88 117.374 157.108 120.034 153.998C121.876 153.187 123.887 152.838 125.894 152.982C125.576 154.216 125.119 155.409 124.534 156.54C122.656 162.59 115.814 166.618 111.212 161.588C110.492 160.686 111.638 159.96 112.482 160.838C113.74 161.704 116.94 163.202 118.082 161.318ZM113.464 156.27L114.302 156.948C115.168 157.748 115.302 159.148 116.18 160.134C113.668 160.152 113.838 158.402 113.464 156.27V156.27ZM72.8944 144.228C70.1307 144.243 67.3914 143.709 64.8352 142.658C62.279 141.607 59.9565 140.06 58.002 138.106C56.0475 136.152 54.4998 133.829 53.4483 131.273C52.3969 128.717 51.8627 125.978 51.8764 123.214C52.3704 95.3864 93.4184 95.3904 93.9104 123.214C93.9242 125.978 93.39 128.717 92.3387 131.273C91.2874 133.829 89.7399 136.151 87.7856 138.105C85.8313 140.059 83.509 141.606 80.953 142.657C78.3971 143.709 75.6581 144.242 72.8944 144.228V144.228ZM171.966 259.478C171.208 259.495 170.454 259.358 169.75 259.076C169.046 258.794 168.407 258.371 167.871 257.835C167.334 257.298 166.912 256.659 166.63 255.955C166.348 255.251 166.211 254.497 166.228 253.738V224.616C170.898 235.976 175.052 247.648 178.748 259.478H171.966ZM153.966 180.194C144.566 178.31 124.8 174.122 120.306 164.88C124.326 162.738 126.662 157.68 127.906 153.162C128.141 153.12 128.351 152.994 128.499 152.807C128.646 152.62 128.72 152.386 128.706 152.148C128.212 135.414 126.706 119.692 138.752 106.626C146.648 103.982 154.72 101.897 162.908 100.386C163.168 100.343 163.4 100.199 163.554 99.9852C163.708 99.7718 163.771 99.5063 163.731 99.2463C163.69 98.9862 163.549 98.7527 163.337 98.5962C163.126 98.4397 162.861 98.373 162.6 98.4104C151.084 100.21 139.528 104.514 128.338 107.646C128.136 107.703 127.957 107.823 127.826 107.988C127.695 108.152 127.62 108.354 127.61 108.564C127.032 122.228 126.082 136.412 126.658 151.028C123.669 150.721 120.657 151.329 118.02 152.77C110.644 137.971 105.099 122.327 101.51 106.184C100.879 103.881 100.879 101.451 101.51 99.1482C102.141 96.8452 103.38 94.7543 105.096 93.0944C113.906 82.4424 128.64 75.6944 141.466 71.3204C158.446 65.8144 169.158 67.8704 188.198 70.4524C187.877 77.9743 190.486 85.3275 195.476 90.9644C194.833 98.9429 193.63 106.866 191.876 114.676C191.817 114.935 191.862 115.207 192.003 115.432C192.144 115.657 192.368 115.817 192.626 115.876C192.885 115.936 193.157 115.891 193.382 115.75C193.607 115.609 193.767 115.385 193.826 115.126C195.472 107.811 196.632 100.395 197.3 92.9264C197.935 93.6709 198.516 94.4588 199.04 95.2844C200.758 95.4314 202.487 95.1978 204.104 94.6004L203.084 123.188C203.075 123.454 203.171 123.712 203.352 123.906C203.533 124.1 203.783 124.215 204.048 124.224C204.314 124.234 204.572 124.138 204.766 123.957C204.96 123.776 205.075 123.526 205.084 123.26L206.136 93.7664C207.369 93.2498 208.486 92.4902 209.419 91.5329C210.352 90.5756 211.083 89.4402 211.568 88.1944C211.599 86.902 211.337 85.6194 210.802 84.4424C220.932 84.5764 229.002 91.0424 238.112 95.1284C239.992 100.902 242.98 107.364 248.432 111.454C249.432 112.21 250.698 110.57 249.6 109.83C239.066 102.248 238.58 84.6544 233.8 73.3804C234.997 72.9284 236.087 72.2328 237.001 71.3377C237.915 70.4426 238.633 69.3675 239.11 68.1804C245.364 74.4484 291.798 112.718 262.51 118.866C248.043 121.822 233.043 120.758 219.138 115.788C220.654 112.082 222.094 108.312 223.446 104.448C223.521 104.202 223.497 103.936 223.381 103.706C223.264 103.476 223.063 103.3 222.82 103.215C222.576 103.13 222.309 103.142 222.075 103.249C221.84 103.356 221.656 103.549 221.56 103.788C216.468 119.692 208.468 133.24 201.31 147.702C201.126 148.531 200.992 149.37 200.91 150.214C192.396 148.962 177.604 146.032 167.294 145.356C167.074 145.342 166.855 145.403 166.673 145.529C166.492 145.655 166.358 145.839 166.294 146.05C164.728 150.924 160.294 162.158 152.756 161.312C152.55 161.289 152.342 161.331 152.161 161.431C151.98 161.531 151.834 161.685 151.744 161.872C151.654 162.058 151.624 162.268 151.658 162.473C151.693 162.677 151.79 162.866 151.936 163.012C156.806 169.176 164.072 171.638 171.712 172.32C180.858 173.694 193.058 176.736 201.132 172.862C196.914 187.668 166.128 182.458 153.96 180.202L153.966 180.194ZM129.13 118.864C129.25 116.17 129.446 112.108 129.574 109.376C131.474 108.838 133.388 108.262 135.296 107.682C132.711 111.092 130.634 114.858 129.13 118.864ZM201.33 169.678C200.73 171.844 196.154 174.812 172.078 170.35C165.578 169.6 159.396 168.22 154.898 163.258C162.04 162.18 166.226 152.508 167.956 147.392C177.102 147.946 190.906 150.758 200.792 152.216C200.902 157.906 203.302 164.748 201.34 169.678H201.33ZM220.944 368.308C225.716 370.548 231.042 369.646 236.216 370.212C238.802 370.052 241.716 371.612 239.188 374.27C237.862 375.496 234.488 375.92 232.614 376.444C227.742 377.81 223.452 378.664 218.304 379.682C212.656 380.8 210.578 379.038 209.776 375.868C209.346 372.171 209.293 368.44 209.616 364.732C212.492 364.452 215.347 363.984 218.162 363.332C218.161 364.33 218.415 365.312 218.902 366.183C219.388 367.054 220.09 367.786 220.94 368.308H220.944ZM361.474 253.738C361.492 254.497 361.355 255.251 361.073 255.955C360.79 256.659 360.368 257.299 359.832 257.836C359.295 258.372 358.655 258.794 357.951 259.077C357.247 259.359 356.493 259.496 355.734 259.478H218.92C214.858 232.54 207.815 206.136 197.92 180.752C205.668 175.468 204.2 163.71 203.258 156.22C202.7 154.017 202.622 151.72 203.03 149.484C203.438 147.248 204.322 145.126 205.622 143.262C208.862 138.028 211.478 131.974 214.422 126.908H355.74C356.499 126.891 357.253 127.028 357.957 127.31C358.661 127.593 359.301 128.015 359.838 128.551C360.374 129.088 360.796 129.727 361.079 130.432C361.361 131.136 361.498 131.89 361.48 132.648L361.474 253.738Z" fill="#121D2F"/>
<path d="M20.7744 245.976H31.2304V257.776C31.2304 258.042 31.3358 258.296 31.5233 258.484C31.7109 258.671 31.9652 258.776 32.2304 258.776C32.4957 258.776 32.75 258.671 32.9375 258.484C33.1251 258.296 33.2304 258.042 33.2304 257.776V245.976H41.8904C42.1557 245.976 42.41 245.871 42.5975 245.684C42.7851 245.496 42.8904 245.242 42.8904 244.976C42.8904 244.711 42.7851 244.457 42.5975 244.269C42.41 244.082 42.1557 243.976 41.8904 243.976H33.2304V235.99C33.2304 235.725 33.1251 235.471 32.9375 235.283C32.75 235.096 32.4957 234.99 32.2304 234.99C31.9652 234.99 31.7109 235.096 31.5233 235.283C31.3358 235.471 31.2304 235.725 31.2304 235.99V243.976H21.7744V219.376C21.7744 219.111 21.6691 218.857 21.4816 218.669C21.294 218.482 21.0397 218.376 20.7744 218.376C20.5092 218.376 20.2549 218.482 20.0673 218.669C19.8798 218.857 19.7744 219.111 19.7744 219.376V244.976C19.7744 245.242 19.8798 245.496 20.0673 245.684C20.2549 245.871 20.5092 245.976 20.7744 245.976Z" fill="#121D2F"/>
<path d="M51.9004 258.456C51.9004 258.722 52.0058 258.976 52.1933 259.164C52.3809 259.351 52.6352 259.456 52.9004 259.456H75.5904C75.8556 259.456 76.11 259.351 76.2975 259.164C76.4851 258.976 76.5904 258.722 76.5904 258.456V218.018C76.5862 217.795 76.5096 217.579 76.3723 217.403C76.2349 217.226 76.0441 217.099 75.8284 217.04C75.6284 216.986 52.7404 216.512 52.0284 217.738C51.5524 218.542 52.1004 257.672 51.9004 258.456ZM53.9004 219.154C57.4264 219 71.0304 218.868 74.5904 218.954V257.46H53.9004V219.154Z" fill="#121D2F"/>
<path d="M320.24 196.802H311.58V188.812C311.58 188.547 311.475 188.293 311.288 188.105C311.1 187.918 310.846 187.812 310.58 187.812C310.315 187.812 310.061 187.918 309.873 188.105C309.686 188.293 309.58 188.547 309.58 188.812V196.802H300.122V172.202C300.122 171.937 300.017 171.683 299.83 171.495C299.642 171.308 299.388 171.202 299.122 171.202C298.857 171.202 298.603 171.308 298.415 171.495C298.228 171.683 298.122 171.937 298.122 172.202V197.802C298.122 198.068 298.228 198.322 298.415 198.51C298.603 198.697 298.857 198.802 299.122 198.802H309.58V210.832C309.58 211.098 309.686 211.352 309.873 211.54C310.061 211.727 310.315 211.832 310.58 211.832C310.846 211.832 311.1 211.727 311.288 211.54C311.475 211.352 311.58 211.098 311.58 210.832V198.802H320.24C320.506 198.802 320.76 198.697 320.948 198.51C321.135 198.322 321.24 198.068 321.24 197.802C321.24 197.537 321.135 197.283 320.948 197.095C320.76 196.908 320.506 196.802 320.24 196.802Z" fill="#121D2F"/>
<path d="M253.518 196.802H244.632V188.812C244.632 188.547 244.527 188.293 244.34 188.105C244.152 187.918 243.898 187.812 243.632 187.812C243.367 187.812 243.113 187.918 242.925 188.105C242.738 188.293 242.632 188.547 242.632 188.812V196.802H233.176V172.202C233.176 171.937 233.071 171.683 232.884 171.495C232.696 171.308 232.442 171.202 232.176 171.202C231.911 171.202 231.657 171.308 231.469 171.495C231.282 171.683 231.176 171.937 231.176 172.202V197.802C231.176 198.068 231.282 198.322 231.469 198.51C231.657 198.697 231.911 198.802 232.176 198.802H242.632V210.832C242.632 211.098 242.738 211.352 242.925 211.54C243.113 211.727 243.367 211.832 243.632 211.832C243.898 211.832 244.152 211.727 244.34 211.54C244.527 211.352 244.632 211.098 244.632 210.832V198.802H253.518C253.784 198.802 254.038 198.697 254.226 198.51C254.413 198.322 254.518 198.068 254.518 197.802C254.518 197.537 254.413 197.283 254.226 197.095C254.038 196.908 253.784 196.802 253.518 196.802Z" fill="#121D2F"/>
<path d="M286.992 169.84C263.948 169.84 263.948 169.84 263.592 170.678C263.298 171.348 263.648 210.64 263.516 211.278C263.516 211.544 263.622 211.798 263.809 211.986C263.997 212.173 264.251 212.278 264.516 212.278H286.982C287.248 212.278 287.502 212.173 287.69 211.986C287.877 211.798 287.982 211.544 287.982 211.278V170.84C287.982 170.577 287.878 170.324 287.693 170.137C287.508 169.95 287.256 169.843 286.992 169.84ZM285.992 210.278H265.526V171.986C268.486 171.884 278.606 171.844 285.992 171.84V210.278Z" fill="#121D2F"/>
<path d="M86.1404 62.8824H96.3804V74.6824C96.3804 74.9477 96.4858 75.202 96.6733 75.3896C96.8609 75.5771 97.1152 75.6824 97.3804 75.6824C97.6457 75.6824 97.9 75.5771 98.0875 75.3896C98.2751 75.202 98.3804 74.9477 98.3804 74.6824V62.8824H107.266C107.532 62.8824 107.786 62.7771 107.974 62.5896C108.161 62.402 108.266 62.1477 108.266 61.8824C108.266 61.6172 108.161 61.3629 107.974 61.1753C107.786 60.9878 107.532 60.8824 107.266 60.8824H98.3804V52.8964C98.3804 52.6312 98.2751 52.3769 98.0875 52.1893C97.9 52.0018 97.6457 51.8964 97.3804 51.8964C97.1152 51.8964 96.8609 52.0018 96.6733 52.1893C96.4858 52.3769 96.3804 52.6312 96.3804 52.8964V60.8824H87.1404V36.2704C87.1404 36.0052 87.0351 35.7509 86.8475 35.5633C86.66 35.3758 86.4057 35.2704 86.1404 35.2704C85.8752 35.2704 85.6209 35.3758 85.4333 35.5633C85.2458 35.7509 85.1404 36.0052 85.1404 36.2704V61.8824C85.1404 62.1477 85.2458 62.402 85.4333 62.5896C85.6209 62.7771 85.8752 62.8824 86.1404 62.8824Z" fill="#121D2F"/>
<path d="M216.74 59.8564C218.268 60.5644 223.792 59.5604 222.5 57.2224C222.413 57.1244 222.307 57.0447 222.189 56.9876C222.071 56.9306 221.942 56.8974 221.811 56.89C221.68 56.8825 221.549 56.901 221.425 56.9443C221.301 56.9876 221.186 57.055 221.088 57.1424C220.57 57.5599 219.961 57.8499 219.311 57.9888C218.66 58.1278 217.986 58.1119 217.342 57.9424C217.217 57.9029 217.085 57.8885 216.953 57.9001C216.822 57.9117 216.694 57.949 216.578 58.0099C216.461 58.0708 216.357 58.1541 216.272 58.2551C216.188 58.3561 216.124 58.4727 216.084 58.5984C216.045 58.7241 216.031 58.8563 216.042 58.9876C216.054 59.1188 216.091 59.2465 216.152 59.3633C216.213 59.4801 216.296 59.5838 216.397 59.6684C216.498 59.753 216.615 59.8169 216.74 59.8564V59.8564Z" fill="#121D2F"/>
<path d="M84.2084 127.524C83.7411 127.524 83.293 127.71 82.9625 128.04C82.6321 128.371 82.4464 128.819 82.4464 129.286C82.4464 129.754 82.6321 130.202 82.9625 130.532C83.293 130.863 83.7411 131.048 84.2084 131.048C84.6758 131.048 85.1239 130.863 85.4544 130.532C85.7848 130.202 85.9704 129.754 85.9704 129.286C85.9704 128.819 85.7848 128.371 85.4544 128.04C85.1239 127.71 84.6758 127.524 84.2084 127.524V127.524Z" fill="#121D2F"/>
<path d="M205.226 45.9704C203.7 46.6784 203.282 46.0684 203.102 45.8124C202.225 44.9082 201.042 44.3636 199.785 44.2848C198.527 44.206 197.286 44.5988 196.302 45.3864C195.502 46.4864 195.032 47.4904 193.464 48.0244C192.934 48.1053 192.424 48.291 191.965 48.5706C191.507 48.8501 191.109 49.2181 190.794 49.653C190.478 50.0879 190.253 50.5811 190.13 51.1039C190.007 51.6267 189.99 52.1687 190.078 52.6984C190.174 54.6144 188.278 54.9244 187.53 56.3784C186.316 58.6564 189.076 60.3644 186.816 61.8364C185.988 62.1544 183.934 65.3364 186.196 65.7284C187.712 65.5824 186.694 64.1124 188.06 63.4044C188.796 62.9153 189.338 62.1853 189.593 61.3401C189.849 60.4948 189.802 59.5869 189.46 58.7724C189.108 57.6104 189.148 57.1944 190.086 56.5204C190.722 56.0948 191.239 55.5148 191.589 54.8347C191.938 54.1546 192.11 53.3968 192.086 52.6324C192.024 50.7124 192.454 50.4844 194.118 49.9184C195.752 49.306 197.104 48.1154 197.918 46.5724C198.497 46.3472 199.122 46.2649 199.74 46.3325C200.358 46.4 200.95 46.6154 201.466 46.9604C201.987 47.6541 202.751 48.1248 203.604 48.2777C204.458 48.4306 205.338 48.2544 206.066 47.7844C206.34 47.7364 207.224 48.7044 207.15 49.5844C207.128 49.8496 207.213 50.1127 207.385 50.3158C207.557 50.5189 207.802 50.6454 208.067 50.6674C208.333 50.6894 208.596 50.6052 208.799 50.4332C209.002 50.2612 209.128 50.0156 209.15 49.7504C209.328 47.5904 207.2 45.0624 205.226 45.9704Z" fill="#121D2F"/>
<path d="M185.268 54.5004C186.148 54.2104 186.927 53.6769 187.516 52.9618C188.105 52.2468 188.479 51.3794 188.594 50.4604C188.304 49.8344 189.494 48.7544 190.688 47.7324C191.15 47.3653 191.519 46.8955 191.767 46.3605C192.015 45.8254 192.135 45.2399 192.116 44.6504C192.064 43.3944 192.692 43.5204 193.798 43.5964C195.176 43.6884 197.272 43.8264 198.156 41.6504C198.247 41.2892 198.426 40.9564 198.677 40.6822C198.929 40.4081 199.246 40.2014 199.598 40.0811C199.95 39.9607 200.327 39.9306 200.694 39.9934C201.061 40.0561 201.406 40.2098 201.698 40.4404C202.35 41.015 203.178 41.3485 204.046 41.3849C204.914 41.4213 205.767 41.1585 206.464 40.6404C207.05 41.5064 207.162 43.4724 209.12 42.9844C210.618 42.6124 211.082 43.4864 210.68 45.1524C210.651 45.2834 210.649 45.4189 210.673 45.5509C210.698 45.6828 210.748 45.8085 210.822 45.9204C211.1 46.4264 212.022 46.4204 212.5 46.5424L211.918 47.6204C211.793 47.8541 211.765 48.1281 211.841 48.3822C211.918 48.6363 212.092 48.8497 212.325 48.9754C212.559 49.1011 212.833 49.1289 213.087 49.0526C213.341 48.9762 213.555 48.8021 213.68 48.5684C214.694 46.4464 216.494 44.9344 212.788 44.5684C212.9 44.0399 212.871 43.4913 212.703 42.9777C212.536 42.4641 212.236 42.0036 211.835 41.6423C211.433 41.281 210.944 41.0317 210.415 40.9194C209.887 40.8071 209.338 40.8357 208.824 41.0024C208.45 39.8824 207.512 37.8744 205.334 39.0164C203.976 39.5444 203.976 39.5464 202.788 38.7704C202.258 38.3493 201.632 38.0665 200.966 37.9474C200.299 37.8284 199.614 37.8769 198.971 38.0885C198.328 38.3001 197.748 38.6682 197.282 39.1598C196.817 39.6513 196.481 40.2509 196.304 40.9044C195.994 41.6224 195.478 41.7044 193.93 41.6104C193.475 41.4612 192.991 41.4264 192.519 41.5092C192.047 41.5919 191.603 41.7896 191.226 42.0849C190.849 42.3801 190.55 42.7637 190.357 43.2018C190.163 43.6398 190.081 44.1189 190.116 44.5964C190.142 44.9166 190.085 45.2379 189.95 45.5292C189.814 45.8205 189.606 46.0718 189.344 46.2584C187.778 47.6684 186.378 48.7444 186.602 50.6584C186.648 51.0584 185.742 52.0584 184.734 52.6584C184.553 52.7748 184.414 52.9468 184.338 53.1487C184.262 53.3506 184.253 53.5717 184.313 53.7789C184.374 53.9861 184.499 54.1683 184.671 54.2983C184.843 54.4284 185.053 54.4993 185.268 54.5004V54.5004Z" fill="#121D2F"/>
</svg>
