<svg width="321" height="383" viewBox="0 0 321 383" fill="none" xmlns="http://www.w3.org/2000/svg">
<path d="M318.514 10.8584C316.382 8.52573 313.42 7.12308 310.265 6.95215L190.588 0C182.297 0.385005 171.843 5.61466 171.843 13.8762V132.346L139.904 109.548C139.797 109.47 139.677 109.414 139.548 109.383C139.42 109.352 139.287 109.346 139.156 109.367C139.026 109.387 138.901 109.433 138.788 109.502C138.676 109.571 138.578 109.662 138.5 109.769L130.205 121.08C128.3 119.466 126.395 117.872 124.608 116.258C128.039 114.052 127.389 113.173 124.546 111L125.073 109.071C130.395 110.112 136.459 107.007 138.98 98.9363C140.692 98.064 143.557 97.2218 143.162 94.8496C143.092 94.3443 143.237 94.6371 139.064 89.5358C138.887 86.6761 138.115 83.8848 136.798 81.3404C137.69 81.5511 138.598 81.6852 139.513 81.7414C143.946 82.6378 150.317 75.1723 143.602 73.5641C143.899 73.1262 144.071 72.6148 144.096 72.0859C144.122 71.5571 144.002 71.0314 143.749 70.5665C143.495 70.1016 143.118 69.7157 142.66 69.451C142.201 69.1863 141.679 69.0532 141.149 69.0663C140.31 69.1739 139.486 69.3798 138.695 69.6799C137.123 69.8544 135.109 68.2402 133.788 67.0009C137.999 62.1984 141.787 58.2461 139.788 53.0625C137.782 49.2787 130.989 48.7814 120.642 51.6408C111.803 40.6221 99.6829 45.2361 89.4903 52.084C82.0709 57.073 81.7601 62.8361 83.9298 71.6872C65.6501 87.5285 74.5272 95.9265 92.438 90.5705C95.6043 95.4973 97.9364 98.5914 96.5868 100.137C95.0889 101.862 91.9888 98.7579 90.7576 101.056C70.2481 102.347 54.3024 119.169 39.1007 131.678C33.6866 136.133 33.1352 141.114 35.762 147.519C38.754 154.833 43.1517 161.488 48.7058 167.108C48.385 168.534 48.0702 169.998 47.7654 171.52C47.6405 172.768 47.5956 174.022 47.631 175.276C25.1383 198.119 32.0604 235.886 41.6474 264.569C42.646 266.526 43.0371 268.737 42.7706 270.918C42.504 273.1 41.592 275.151 40.1515 276.811C27.2352 296.241 15.864 316.655 6.14269 337.864C6.04622 338.077 6.02729 338.317 6.08917 338.543C6.15106 338.769 6.28987 338.965 6.48158 339.099C4.92269 340.695 3.44497 342.368 2.05402 344.112C-6.82316 353.908 15.5452 363.507 22.1806 364.016C25.8542 364.297 28.6715 361.009 24.9879 358.5C22.7019 356.008 13.8608 350.355 17.0171 345.771C18.1601 345.983 18.9541 345.169 20.0089 344.52L69.085 296.893C74.6798 291.573 79.3311 285.342 82.8409 278.465C92.0032 306.444 98.062 335.345 100.908 364.648C100.831 365.742 101.133 366.83 101.763 367.728C102.394 368.626 103.314 369.28 104.369 369.579C103.419 374.367 101.985 382.884 109.035 383C115.344 383 125.278 375.541 127.431 373.64C128.892 372.507 130.1 371.083 130.981 369.459C132.258 367.329 131.181 364.135 128.444 364.464C123.672 364.628 119.497 368.193 114.975 368.875C115.039 368.602 115.115 368.312 115.189 368.031C116.686 365.272 117.582 362.229 117.82 359.1C128.149 301.577 125.683 237.721 114.321 184.965C114.186 182.74 114.199 180.509 114.361 178.286C117.7 176.28 117.616 173.752 118.047 171.013C130.957 195.677 149.631 194.452 170.404 183.936L171.021 184.55V293.514C170.99 296.221 171.962 298.843 173.749 300.876C175.536 302.909 178.012 304.209 180.7 304.525C307.129 319.314 301.372 318.461 304.199 318.209C309.96 317.695 320.622 310.523 320.61 304.353V19.4648C320.87 17.9633 320.818 16.4242 320.458 14.9435C320.097 13.4628 319.436 12.0723 318.514 10.8584V10.8584ZM24.7152 361.011C23.9833 365.007 3.05864 356.425 1.93571 349.523C1.91665 348.769 2.05039 348.02 2.32885 347.319C2.60732 346.619 3.02474 345.983 3.55594 345.448C5.00151 343.636 6.54096 341.901 8.16798 340.25C8.16798 340.25 15.066 344.953 15.1522 345.009C11.4766 351.243 20.7789 356.792 24.7152 361.011ZM139.541 111.76L194.529 151.263C193.523 152.041 192.61 152.932 191.807 153.918C191.672 153.81 191.509 153.742 191.336 153.722C191.164 153.702 190.99 153.731 190.833 153.806C188.09 154.93 185.242 155.776 182.331 156.332L179.674 150.812C179.612 150.684 179.523 150.571 179.414 150.48C179.304 150.389 179.177 150.323 179.04 150.285C178.903 150.247 178.76 150.239 178.62 150.26C178.479 150.282 178.345 150.333 178.226 150.411L173.867 153.218L174.847 148.169C174.874 148.03 174.871 147.886 174.839 147.748C174.806 147.61 174.745 147.481 174.659 147.368C174.573 147.256 174.464 147.163 174.339 147.095C174.214 147.028 174.076 146.988 173.935 146.978C166.315 146.705 166.846 144.668 167.564 152.915L164.185 149.147C164.083 149.033 163.955 148.944 163.812 148.886C163.669 148.829 163.515 148.806 163.362 148.817C163.209 148.829 163.06 148.876 162.928 148.955C162.796 149.033 162.683 149.141 162.599 149.27L159.541 153.968C159.468 154.081 159.419 154.207 159.396 154.34C159.373 154.472 159.377 154.608 159.407 154.739C159.438 154.87 159.494 154.994 159.573 155.102C159.653 155.211 159.753 155.303 159.868 155.372L164.147 157.912C163.299 158.197 158.745 158.628 158.677 159.356C158.242 159.996 159.279 161.486 159.443 162.089C157.139 162.692 154.758 162.946 152.379 162.843C150.742 159.678 149.167 156.559 147.652 153.489C147.853 153.489 148.119 153.511 148.117 153.288C148.194 153.207 148.252 153.11 148.287 153.004C148.322 152.898 148.332 152.785 148.318 152.675C148.117 150.836 147.917 148.381 147.917 146.747C148.733 147.565 149.96 148.586 152.004 150.427C152.085 150.504 152.182 150.562 152.288 150.596C152.394 150.631 152.506 150.642 152.617 150.627C153.868 148.988 155.028 147.282 156.092 145.516C156.092 145.183 156.19 144.513 155.691 144.495L151.4 142.245L156.714 140.611C156.817 140.602 156.914 140.557 156.988 140.484C157.061 140.411 157.106 140.314 157.115 140.21C157.516 139.809 157.516 139.596 157.516 139.392L155.064 134.078C155.064 133.575 154.37 133.677 154.041 133.677L149.134 136.948L150.157 131.429C150.269 131.126 149.802 130.545 149.543 130.611C141.091 129.895 143.064 128.301 143.616 136.948C138.825 131.652 139.806 132.319 138.506 132.654L138.177 133.094C136.445 129.733 135.853 125.855 132.825 123.312C132.461 123.005 132.11 122.71 131.751 122.396L139.541 111.76ZM253.146 190.698L208.028 158.414C206.496 156.418 285.877 167.321 285.883 166.761C286.149 166.761 286.404 166.656 286.592 166.468C286.78 166.28 286.886 166.025 286.886 165.759V141.229C286.887 140.977 286.793 140.734 286.622 140.548C286.452 140.362 286.218 140.247 285.967 140.226L195.006 132.458C194.867 132.446 194.728 132.463 194.596 132.509C194.465 132.554 194.344 132.626 194.242 132.72C194.14 132.814 194.058 132.929 194.002 133.056C193.947 133.184 193.918 133.321 193.919 133.46V148.351L185.698 142.304V21.9052L298.368 29.7376V278.104L185.391 267.458V195.186C230.378 228.645 227.515 226.652 228.03 226.652C228.804 226.652 226.558 228.807 253.376 192.098C253.529 191.881 253.59 191.612 253.547 191.351C253.504 191.089 253.36 190.855 253.146 190.698ZM202.766 150.593C202.474 150.013 202.014 149.536 201.445 149.223C200.876 148.911 200.226 148.778 199.58 148.843C195.507 149.819 196.861 150.469 195.922 149.793V134.551L284.868 142.149V164.63L207.121 155.588C205.662 154.002 203.384 152.779 202.766 150.593ZM205.662 158.225H204.942C203.398 158.58 203.001 159.711 202.241 160.726C201.14 162.549 199.384 163.884 197.332 164.455L195.649 164.355C194.847 161.612 193.939 158.714 192.76 155.785C194.518 153.362 197.047 151.608 199.933 150.812C200.134 150.815 200.332 150.87 200.507 150.969C200.682 151.069 200.829 151.212 200.935 151.383C201.685 153.247 202.971 154.846 204.629 155.979C205.19 156.228 206.57 157.874 205.662 158.223V158.225ZM133.986 80.4601C134.494 81.2276 134.944 82.0319 135.332 82.8664C133.055 83.4782 131.101 84.9421 129.874 86.955C129.737 87.1832 129.697 87.4563 129.761 87.7143C129.826 87.9722 129.99 88.194 130.219 88.3306C130.447 88.4673 130.72 88.5078 130.978 88.4431C131.236 88.3784 131.458 88.2139 131.594 87.9857C132.089 87.1723 132.74 86.4651 133.51 85.9051C134.28 85.3451 135.154 84.9434 136.08 84.7232C136.607 86.6413 137.019 88.5892 137.313 90.5564L141.061 95.1304C141.368 95.2928 141.061 95.6036 140.836 95.7159C139.87 96.3247 138.849 96.8416 137.786 97.2599C136.984 97.5687 137.435 98.062 136.006 100.924C135.042 101.223 134.002 101.16 133.082 100.744C132.162 100.329 131.427 99.5908 131.015 98.6696C130.896 98.4303 130.686 98.2481 130.433 98.1631C130.179 98.0781 129.903 98.0973 129.663 98.2164C129.424 98.3356 129.242 98.5449 129.157 98.7984C129.072 99.0518 129.091 99.3287 129.21 99.568C129.705 100.609 130.478 101.493 131.445 102.121C132.412 102.749 133.534 103.097 134.686 103.125C133.703 104.582 132.328 105.731 130.719 106.441C129.111 107.15 127.336 107.391 125.597 107.136C126.415 105.157 124.181 104.701 123.824 106.011L122.839 109.62C121.413 108.538 119.924 107.541 118.38 106.634C124.206 99.1763 128.161 90.4317 129.916 81.1318C130.116 80.1092 130.734 78.882 130.529 78.0658C131.621 78.9477 132.777 79.7479 133.986 80.4601V80.4601ZM85.9491 58.2401C92.9874 50.2893 107.904 41.9455 116.745 50.564C123.563 57.2074 123.627 57.3357 123.832 58.23C124.191 59.8062 122.705 61.7151 121.739 63.191C119.178 66.8981 115.853 70.0138 111.987 72.3289C105.45 76.7404 92.2936 78.0077 87.2705 76.5178C86.3601 73.165 82.9974 62.3949 85.9491 58.2401ZM76.2036 87.9817C74.6435 85.3308 77.866 79.8886 84.4471 73.921C85.1831 76.3133 85.141 77.6528 86.2117 78.2824C95.3913 80.1275 104.928 78.6102 113.082 74.0072C117.408 71.3744 121.094 67.8127 123.874 63.58C126.96 59.3109 126.353 56.8464 122.454 53.4455C129.555 50.8668 137.075 51.5586 138.039 54.0291C140.044 61.7572 125.498 72.7319 112.272 80.2575C94.0201 90.2236 78.6219 92.3351 76.2036 87.9817ZM79.9855 279.73C80.5089 274.455 77.2163 273.135 69.8189 250.378C69.0008 247.923 62.4597 229.936 67.3665 230.959C69.2053 231.36 69.819 235.455 70.228 236.887C72.9812 246.985 78.8144 262.842 82.3817 274.011C81.7804 275.995 80.9774 277.911 79.9855 279.73V279.73ZM81.6178 190.72C70.7214 189.035 60.4563 184.526 51.844 177.642C50.9527 177.006 50.2752 176.114 49.9011 175.085C49.527 174.055 49.4738 172.937 49.7485 171.877C50.9116 166.721 51.9302 162.121 53.2256 157.906C65.9308 169.308 83.3703 176.924 103.357 179.615C106.337 180.213 109.419 180.054 112.322 179.152C112.153 180.768 112.538 184.696 111.552 185.97C105.47 193.848 92.2816 192.579 81.6178 190.726V190.72ZM129.196 366.525C130.515 368.245 127.211 371.205 126.188 372.063C122.142 375.472 109.344 384.197 106.404 379.8C105.001 377.843 105.558 374.632 106.046 371.797C105.873 368.973 108.251 370.754 109.843 370.477C110.842 370.497 111.835 370.323 112.767 369.966C112.767 370.232 112.873 370.487 113.061 370.675C113.249 370.863 113.504 370.969 113.77 370.969C119.35 370.969 124.65 366.018 129.196 366.531V366.525ZM133.515 185.956C122.328 178.937 113.551 160.204 110.656 145.323C110.596 145.071 110.442 144.852 110.224 144.711C110.007 144.57 109.743 144.519 109.489 144.568C109.234 144.618 109.009 144.763 108.86 144.975C108.711 145.187 108.649 145.448 108.688 145.704C110.328 153.565 112.998 161.175 116.629 168.338C115.342 171.662 116.782 175.039 112.789 176.886C109.885 177.982 106.732 178.243 103.687 177.642C79.7649 173.607 57.9099 164.311 46.5221 147.02C46.4735 146.531 46.5291 146.037 46.6853 145.571C46.8416 145.105 47.0949 144.678 47.4285 144.317C51.5412 135.724 56.5049 127.564 62.2452 119.961C62.4047 119.748 62.4732 119.481 62.4356 119.218C62.398 118.955 62.2574 118.717 62.0447 118.558C61.8319 118.398 61.5645 118.33 61.3013 118.367C61.0381 118.405 60.8005 118.545 60.641 118.758C54.846 126.433 49.8315 134.667 45.6719 143.338C45.2241 143.877 44.8913 144.502 44.694 145.174C44.4968 145.846 44.4392 146.551 44.5249 147.246C45.327 151.213 49.0547 153.521 51.5833 156.428C50.7552 159.051 49.9912 161.833 49.2733 164.792C44.3109 159.574 40.3665 153.475 37.6429 146.809C35.3369 141.177 35.5675 137.17 40.4503 133.188C55.3231 121.028 70.6411 104.673 90.4528 103.069C90.6843 103.691 91.0404 104.259 91.4994 104.738C91.9583 105.218 92.5104 105.598 93.1218 105.856C91.283 108.311 93.7113 110.607 95.7787 111.581C97.0377 112.148 98.4079 112.424 99.788 112.389C101.168 112.354 102.523 112.01 103.752 111.381C103.681 113.847 107.636 114.856 109.884 114.038C112.796 112.821 115.295 110.787 117.078 108.182C118.165 108.985 125.833 113.208 124.063 114.168C123.134 114.87 121.478 115.861 122.488 117.02C125.733 120.102 129.475 122.835 132.683 125.989C138.524 138.133 143.547 150.71 150.718 164.01C152.784 167.555 184.663 157.85 190.675 155.947C191.792 158.714 192.76 161.54 193.574 164.411C187.084 170.4 180.042 175.762 172.541 180.423C166.808 183.912 146.82 194.221 133.515 185.962V185.956ZM185.691 173.609L188.87 175.49C183.688 176.493 183.698 176.368 183.402 176.94C182.768 177.315 185.523 182.326 185.826 183.329C185.883 183.458 185.967 183.573 186.072 183.667C186.177 183.762 186.301 183.833 186.435 183.876C186.57 183.919 186.712 183.933 186.852 183.918C186.992 183.902 187.128 183.857 187.25 183.786L191.98 181.003C191.91 181.642 190.005 186.369 190.596 186.73C190.674 186.852 190.777 186.956 190.898 187.034C191.02 187.113 191.157 187.164 191.3 187.185C191.3 187.185 197.115 188.013 197.167 188.013C197.306 188.013 197.443 187.985 197.57 187.93C197.697 187.875 197.811 187.794 197.906 187.692C198 187.591 198.072 187.471 198.117 187.34C198.163 187.209 198.181 187.07 198.17 186.932C198.026 185.029 197.883 182.992 197.801 181.518L201.411 184.704C201.518 184.8 201.645 184.871 201.783 184.913C201.921 184.955 202.066 184.967 202.208 184.948C202.351 184.929 202.488 184.879 202.61 184.803C202.732 184.726 202.836 184.624 202.914 184.504C203.115 183.96 206.548 179.507 206.111 179.005C206.127 178.304 202.483 176.822 202.044 176.461L206.656 175.105C206.796 175.064 206.925 174.992 207.034 174.895C207.144 174.799 207.231 174.679 207.289 174.546C207.347 174.412 207.376 174.267 207.373 174.122C207.369 173.976 207.334 173.832 207.27 173.702L204.613 168.388C204.551 168.261 204.462 168.149 204.354 168.059C204.245 167.969 204.119 167.903 203.983 167.865C203.847 167.827 203.704 167.819 203.565 167.84C203.425 167.86 203.292 167.911 203.173 167.987L198.814 170.794L199.794 165.745C201.964 164.319 203.791 162.432 205.146 160.218H206.373C207.021 159.095 250.631 191.917 251.172 191.743L227.821 224.227L172.315 182.861C176.983 180.094 181.453 177.004 185.691 173.615V173.609ZM311.35 307.613C311.372 312.731 305.966 316.637 300.922 316.224L180.939 302.528C178.739 302.267 176.713 301.2 175.253 299.534C173.792 297.868 173.001 295.72 173.03 293.504V186.024L183.396 193.678V268.353C183.372 268.591 183.443 268.83 183.593 269.017C183.743 269.204 183.96 269.326 184.198 269.355C185.128 269.498 299.122 280.871 299.637 279.935C299.637 278.513 300.676 31.0972 300.505 29.0378C300.413 27.9209 299.97 27.8347 299.856 27.7886C299.12 28.1114 184.731 19.15 184.224 20.0824C183.277 20.4514 183.823 140.208 183.498 140.854L173.847 133.771V13.8582C173.896 11.568 174.838 9.38768 176.471 7.78162C178.105 6.17557 180.301 5.27069 182.591 5.25973C182.86 4.83262 302.24 12.4645 302.575 12.1999C308.013 12.5768 311.352 17.1648 311.352 22.6411L311.35 307.613Z" fill="#121D2F"/>
<path d="M235.907 278.91C222.271 280.673 224.765 304.06 238.981 302.795C253.041 300.433 249.546 277.146 235.907 278.91ZM244.343 297.17C243.733 298.152 242.912 298.987 241.94 299.612C240.967 300.238 239.868 300.639 238.721 300.787C237.574 300.934 236.409 300.824 235.31 300.465C234.211 300.106 233.206 299.506 232.367 298.71C226.372 293.807 228.397 281.748 236.163 280.9C243.893 279.757 248.9 290.908 244.343 297.176V297.17Z" fill="#121D2F"/>
<path d="M230.849 196.808C230.911 196.1 227.21 194.602 226.779 194.237L231.391 192.884C231.531 192.843 231.661 192.772 231.771 192.675C231.881 192.579 231.968 192.46 232.027 192.326C232.086 192.192 232.115 192.047 232.112 191.901C232.11 191.755 232.075 191.611 232.01 191.48C231.581 190.878 229.388 185.264 228.722 185.428C228.232 184.969 224.021 188.197 223.546 188.366L224.511 183.323C224.537 183.184 224.534 183.04 224.502 182.903C224.469 182.765 224.408 182.636 224.322 182.523C224.235 182.411 224.126 182.318 224.002 182.251C223.877 182.184 223.74 182.144 223.598 182.134C215.84 181.797 216.55 179.946 217.24 188.233L213.63 184.48C213.53 184.376 213.409 184.295 213.275 184.242C213.141 184.19 212.997 184.167 212.853 184.175C212.709 184.183 212.569 184.221 212.441 184.289C212.314 184.356 212.202 184.45 212.114 184.564C211.802 185.165 208.026 189.326 208.449 189.862C208.268 190.511 212.832 192.723 213.199 193.07C212.339 193.357 207.785 193.784 207.727 194.518C207.107 194.931 209.806 199.804 210.151 200.909C210.21 201.037 210.294 201.151 210.4 201.245C210.505 201.338 210.629 201.409 210.763 201.452C210.897 201.495 211.039 201.51 211.179 201.495C211.319 201.48 211.455 201.436 211.577 201.366L216.39 198.534L215.008 203.503C214.97 203.641 214.961 203.785 214.983 203.926C215.005 204.066 215.057 204.201 215.135 204.32C215.213 204.44 215.315 204.541 215.435 204.618C215.556 204.694 215.691 204.744 215.832 204.765C223.759 205.767 222.862 207.171 222.409 199.254C223.231 199.974 224.374 200.949 225.957 202.288C226.062 202.377 226.184 202.443 226.316 202.483C226.448 202.522 226.587 202.534 226.724 202.517C226.861 202.501 226.993 202.456 227.111 202.386C227.23 202.317 227.333 202.223 227.414 202.112C227.719 201.49 231.29 197.341 230.849 196.808Z" fill="#121D2F"/>
<path d="M133.608 92.3912C136.072 92.5917 137.427 87.8113 134.811 87.322C133.106 86.6482 130.333 92.1165 133.608 92.3912Z" fill="#121D2F"/>
<path d="M87.4731 60.2593C96.1498 59.6075 104.355 56.058 110.772 50.181C110.967 49.9996 111.081 49.7484 111.091 49.4825C111.1 49.2166 111.003 48.9579 110.822 48.7633C110.641 48.5686 110.389 48.454 110.124 48.4446C109.858 48.4352 109.599 48.5318 109.404 48.7131C103.343 54.3121 95.5556 57.6794 87.3247 58.2601C87.0639 58.2854 86.8235 58.4118 86.6547 58.6121C86.4859 58.8125 86.4023 59.071 86.4217 59.3322C86.4411 59.5935 86.562 59.8368 86.7584 60.01C86.9549 60.1833 87.2114 60.2728 87.4731 60.2593Z" fill="#121D2F"/>
<path d="M252.384 83.869C252.428 77.6748 252.464 68.6954 252.329 66.5558C251.084 49.4551 224.507 49.028 223.55 64.5385L222.933 82.5977C220.975 82.9794 219.203 84.0114 217.905 85.5263C216.607 87.0412 215.859 88.9501 215.782 90.9435L215.381 121.387C215.378 121.641 215.471 121.887 215.642 122.075C215.812 122.263 216.048 122.379 216.301 122.4L259.229 125.875C259.368 125.886 259.507 125.868 259.638 125.823C259.769 125.777 259.889 125.705 259.991 125.611C260.093 125.517 260.174 125.402 260.229 125.275C260.284 125.148 260.313 125.011 260.312 124.872V92.7883C260.34 90.581 259.542 88.4431 258.075 86.7933C256.609 85.1435 254.579 84.1006 252.384 83.869ZM227.848 103.32C228.71 97.1697 248.287 98.2525 248.443 104.948C247.403 111.004 227.99 110.003 227.854 103.314L227.848 103.32ZM235.181 61.29H237.272C239.187 61.2475 241.043 61.9508 242.449 63.2513C243.856 64.5519 244.701 66.3479 244.808 68.2602V83.4178L230.248 82.6398V68.0958C230.123 67.3241 230.153 66.5354 230.334 65.775C230.515 65.0146 230.844 64.2974 231.303 63.6646C231.762 63.0318 232.341 62.4957 233.008 62.0872C233.674 61.6787 234.415 61.4057 235.187 61.284L235.181 61.29ZM250.378 83.7286L246.813 83.5281V68.2081C246.685 65.767 245.614 63.4712 243.825 61.8052C242.036 60.1392 239.67 59.2333 237.226 59.2788C236.009 59.1168 234.771 59.2373 233.608 59.6311C232.446 60.0249 231.389 60.6813 230.521 61.5494C229.653 62.4174 228.997 63.4739 228.603 64.6366C228.209 65.7994 228.089 67.0373 228.251 68.2542V82.5415L225.213 82.3771C224.832 82.359 224.751 84.4926 225.554 64.6167C225.57 64.2397 226.101 55.3565 236.817 55.3565C249.476 55.3565 250.3 66.2189 250.328 66.6801C250.463 68.7254 250.429 77.5565 250.378 83.7226V83.7286Z" fill="#121D2F"/>
<path d="M243.683 15.697C243.683 16.3367 243.429 16.9503 242.976 17.4027C242.524 17.8551 241.91 18.1093 241.271 18.1093C240.631 18.1093 240.017 17.8551 239.565 17.4027C239.112 16.9503 238.858 16.3367 238.858 15.697C238.858 15.0572 239.112 14.4436 239.565 13.9912C240.017 13.5388 240.631 13.2847 241.271 13.2847C241.91 13.2847 242.524 13.5388 242.976 13.9912C243.429 14.4436 243.683 15.0572 243.683 15.697V15.697Z" fill="#121D2F"/>
</svg>
