<svg width="81" height="26" viewBox="0 0 81 26" fill="none" xmlns="http://www.w3.org/2000/svg">
<path d="M7.272 20.24C5.688 20.24 4.468 19.848 3.612 19.064C2.764 18.272 2.34 17.02 2.34 15.308V6.872L3.036 2.24H6.156V14.708C6.156 15.612 6.324 16.236 6.66 16.58C7.004 16.924 7.556 17.096 8.316 17.096C8.524 17.096 8.736 17.084 8.952 17.06C9.176 17.028 9.424 16.988 9.696 16.94V19.964C9.352 20.036 8.964 20.1 8.532 20.156C8.108 20.212 7.688 20.24 7.272 20.24ZM0.204 9.884V6.872H9.612V9.884H0.204ZM14.8084 20.252C13.4964 20.252 12.3604 20.004 11.4004 19.508C10.4484 19.004 9.71238 18.252 9.19237 17.252C8.67237 16.244 8.41237 14.984 8.41237 13.472C8.41237 11.944 8.66437 10.676 9.16837 9.668C9.68037 8.66 10.4124 7.908 11.3644 7.412C12.3244 6.916 13.4724 6.668 14.8084 6.668C16.1444 6.668 17.2884 6.92 18.2404 7.424C19.2004 7.92 19.9324 8.672 20.4364 9.68C20.9484 10.68 21.2044 11.936 21.2044 13.448C21.2044 14.968 20.9444 16.232 20.4244 17.24C19.9044 18.248 19.1644 19.004 18.2044 19.508C17.2524 20.004 16.1204 20.252 14.8084 20.252ZM14.8084 17.348C15.3444 17.348 15.8004 17.232 16.1764 17C16.5604 16.768 16.8524 16.372 17.0524 15.812C17.2524 15.244 17.3524 14.468 17.3524 13.484C17.3524 12.476 17.2524 11.688 17.0524 11.12C16.8524 10.552 16.5604 10.152 16.1764 9.92C15.8004 9.68 15.3444 9.56 14.8084 9.56C14.2724 9.56 13.8124 9.676 13.4284 9.908C13.0524 10.14 12.7644 10.54 12.5644 11.108C12.3644 11.668 12.2644 12.444 12.2644 13.436C12.2644 14.444 12.3644 15.232 12.5644 15.8C12.7644 16.368 13.0524 16.768 13.4284 17C13.8124 17.232 14.2724 17.348 14.8084 17.348ZM26.0488 20.228C25.0808 20.228 24.1848 20.008 23.3608 19.568C22.5448 19.128 21.8888 18.428 21.3928 17.468C20.9048 16.508 20.6608 15.256 20.6608 13.712C20.6608 12.184 20.9328 10.896 21.4768 9.848C22.0208 8.8 22.8208 8.008 23.8768 7.472C24.9408 6.928 26.2568 6.656 27.8248 6.656C28.0888 6.656 28.3488 6.668 28.6048 6.692C28.8688 6.708 29.1128 6.728 29.3368 6.752V0.607999H33.1648V20H29.9488L29.7208 18.62H29.5408C29.1648 19.1 28.6808 19.488 28.0888 19.784C27.5048 20.08 26.8248 20.228 26.0488 20.228ZM27.1768 17.108C27.5688 17.108 27.9568 17.036 28.3408 16.892C28.7328 16.748 29.0648 16.524 29.3368 16.22V9.716C29.1288 9.668 28.8888 9.632 28.6168 9.608C28.3448 9.576 28.0768 9.56 27.8128 9.56C26.7168 9.56 25.8928 9.856 25.3408 10.448C24.7888 11.032 24.5128 12.02 24.5128 13.412C24.5128 14.364 24.6248 15.108 24.8488 15.644C25.0728 16.18 25.3808 16.56 25.7728 16.784C26.1728 17 26.6408 17.108 27.1768 17.108ZM39.4224 20.252C38.1104 20.252 36.9744 20.004 36.0144 19.508C35.0624 19.004 34.3264 18.252 33.8064 17.252C33.2864 16.244 33.0264 14.984 33.0264 13.472C33.0264 11.944 33.2784 10.676 33.7824 9.668C34.2944 8.66 35.0264 7.908 35.9784 7.412C36.9384 6.916 38.0864 6.668 39.4224 6.668C40.7584 6.668 41.9024 6.92 42.8544 7.424C43.8144 7.92 44.5464 8.672 45.0504 9.68C45.5624 10.68 45.8184 11.936 45.8184 13.448C45.8184 14.968 45.5584 16.232 45.0384 17.24C44.5184 18.248 43.7784 19.004 42.8184 19.508C41.8664 20.004 40.7344 20.252 39.4224 20.252ZM39.4224 17.348C39.9584 17.348 40.4144 17.232 40.7904 17C41.1744 16.768 41.4664 16.372 41.6664 15.812C41.8664 15.244 41.9664 14.468 41.9664 13.484C41.9664 12.476 41.8664 11.688 41.6664 11.12C41.4664 10.552 41.1744 10.152 40.7904 9.92C40.4144 9.68 39.9584 9.56 39.4224 9.56C38.8864 9.56 38.4264 9.676 38.0424 9.908C37.6664 10.14 37.3784 10.54 37.1784 11.108C36.9784 11.668 36.8784 12.444 36.8784 13.436C36.8784 14.444 36.9784 15.232 37.1784 15.8C37.3784 16.368 37.6664 16.768 38.0424 17C38.4264 17.232 38.8864 17.348 39.4224 17.348Z" fill="#121D2F"/>
<path d="M48.0039 25.28L49.8879 20L51.2079 16.976L54.4719 6.872H58.2399L51.7599 25.28H48.0039ZM48.8319 20L44.2239 6.872H48.2199L52.3839 20H48.8319ZM62.8412 20.252C61.5292 20.252 60.3932 20.004 59.4332 19.508C58.4812 19.004 57.7452 18.252 57.2252 17.252C56.7052 16.244 56.4452 14.984 56.4452 13.472C56.4452 11.944 56.6972 10.676 57.2012 9.668C57.7132 8.66 58.4452 7.908 59.3972 7.412C60.3572 6.916 61.5052 6.668 62.8412 6.668C64.1772 6.668 65.3212 6.92 66.2732 7.424C67.2332 7.92 67.9652 8.672 68.4692 9.68C68.9812 10.68 69.2372 11.936 69.2372 13.448C69.2372 14.968 68.9772 16.232 68.4572 17.24C67.9372 18.248 67.1972 19.004 66.2372 19.508C65.2852 20.004 64.1532 20.252 62.8412 20.252ZM62.8412 17.348C63.3772 17.348 63.8332 17.232 64.2092 17C64.5932 16.768 64.8852 16.372 65.0852 15.812C65.2852 15.244 65.3852 14.468 65.3852 13.484C65.3852 12.476 65.2852 11.688 65.0852 11.12C64.8852 10.552 64.5932 10.152 64.2092 9.92C63.8332 9.68 63.3772 9.56 62.8412 9.56C62.3052 9.56 61.8452 9.676 61.4612 9.908C61.0852 10.14 60.7972 10.54 60.5972 11.108C60.3972 11.668 60.2972 12.444 60.2972 13.436C60.2972 14.444 60.3972 15.232 60.5972 15.8C60.7972 16.368 61.0852 16.768 61.4612 17C61.8452 17.232 62.3052 17.348 62.8412 17.348ZM73.4987 20.228C72.6267 20.228 71.8507 20.06 71.1707 19.724C70.4907 19.38 69.9547 18.832 69.5627 18.08C69.1707 17.328 68.9747 16.332 68.9747 15.092V6.872H72.8027V14.828C72.8027 15.62 72.9667 16.168 73.2947 16.472C73.6307 16.776 74.0667 16.928 74.6027 16.928C74.8667 16.928 75.1427 16.892 75.4307 16.82C75.7267 16.74 76.0067 16.62 76.2707 16.46C76.5347 16.3 76.7667 16.1 76.9667 15.86V6.872H80.7827V20H77.6387L77.3747 18.68H77.2067C76.7107 19.184 76.1467 19.568 75.5147 19.832C74.8827 20.096 74.2107 20.228 73.4987 20.228Z" fill="#2F6CC8"/>
</svg>
