<svg width="438" height="383" viewBox="0 0 438 383" fill="none" xmlns="http://www.w3.org/2000/svg">
<path d="M334.758 32.7612C332.769 32.6306 332.256 37.2411 334.671 37.5253C336.827 37.6628 336.942 32.6879 334.758 32.7612Z" fill="#121D2F"/>
<path d="M337.735 30.4857C336.156 29.8166 333.028 27.454 332.1 29.3743C332.052 29.5173 332.033 29.6682 332.044 29.8185C332.055 29.9688 332.095 30.1156 332.162 30.2503C332.23 30.385 332.323 30.5051 332.437 30.6037C332.551 30.7023 332.683 30.7775 332.826 30.8249C334.127 31.2235 335.378 31.7694 336.555 32.4518C336.815 32.6083 337.128 32.6549 337.423 32.5812C337.718 32.5075 337.971 32.3196 338.128 32.0589C338.284 31.7981 338.331 31.4859 338.257 31.1909C338.183 30.8959 337.996 30.6422 337.735 30.4857V30.4857Z" fill="#121D2F"/>
<path d="M429.742 335.648C427.838 334.779 425.805 334.305 425.012 332.898C426.859 330.788 427.134 330.65 427.038 329.983C414.664 321.067 405.314 304.408 400.257 291.616C389.012 265.218 388.737 237.837 389.471 209.759C389.7 197.9 389.111 184.286 383.098 172.986C383.92 172.461 384.596 171.736 385.061 170.878C385.526 170.02 385.765 169.058 385.756 168.083C387.939 146.367 387.608 124.473 384.768 102.834C382.766 85.8421 377.381 66.206 360.742 57.8626L360.196 52.0283C361.031 51.3757 361.673 50.5083 362.053 49.5191C362.98 47.9567 363.633 46.2469 363.982 44.464C370.199 45.2523 370.735 36.4437 368.948 30.5613C374.402 28.9733 374.933 19.2527 367.802 15.82C368.806 13.9043 368.375 11.3652 366.482 8.52604C358.494 -1.22439 342.728 -1.9233 331.534 2.96222C328.131 4.18819 324.905 8.51 327.638 11.78C326.154 12.1399 324.776 12.8468 323.618 13.8427C322.46 14.8386 321.555 16.0951 320.977 17.5088C320.747 18.239 320.736 19.021 320.948 19.757C321.159 20.493 321.583 21.1504 322.166 21.6469C322.748 22.1435 323.465 22.4573 324.225 22.5491C324.985 22.6408 325.756 22.5065 326.44 22.1629C326.155 22.7406 325.899 23.3326 325.675 23.9365C324.843 25.7996 325.59 28.1048 328.184 27.9169C328.289 28.0338 327.98 33.4372 327.888 34.3332L325.436 41.2078C325.306 41.4562 325.238 41.7329 325.24 42.0135C325.241 42.2941 325.312 42.5701 325.445 42.8171C325.578 43.0642 325.769 43.2749 326.003 43.4305C326.236 43.5862 326.505 43.6822 326.784 43.7101L328.679 44.0905C329.896 49.9683 334.967 56.137 341.399 56.1645C341.276 57.8704 341.01 59.5629 340.604 61.2242C325.681 68.6419 316.467 84.1967 310.356 99.621C301.63 96.8001 301.297 96.642 299.356 96.2135C306.018 88.9952 305.759 89.866 305.759 89.316C305.759 88.5736 305.759 87.5859 305.019 87.0909C304.441 86.557 303.431 86.2683 303.039 87.0909C302.686 87.0909 303.603 86.2683 295.477 94.5201C293.245 93.7234 290.82 93.6433 288.54 94.2909C280.215 87.8311 263.366 75.9931 263.366 75.9931C262.575 75.3056 261.574 74.9083 260.527 74.8666C259.48 74.8249 258.45 75.1415 257.607 75.7639L241.337 84.8063C240.588 50.5388 239.181 9.08976 239.167 8.70478C239.149 7.73019 238.896 6.7744 238.429 5.91901C237.961 5.06362 237.294 4.33404 236.483 3.79256C235.673 3.25109 234.743 2.91381 233.774 2.80952C232.805 2.70523 231.825 2.83703 230.918 3.19367L84.5101 62.8031C83.4219 63.264 82.4938 64.0354 81.8417 65.0209C81.1896 66.0064 80.8424 67.1623 80.8436 68.344L83.032 135.215L2.85848 168.898C1.99149 169.291 1.25866 169.929 0.750743 170.734C0.242829 171.539 -0.0178626 172.475 0.000950999 173.426L3.46574 270.078C3.57162 271.111 4.01256 272.082 4.72129 272.841C5.43002 273.6 6.36764 274.107 7.39112 274.283L5.57165 275.218C5.37365 275.344 5.21296 275.521 5.1062 275.73C4.99944 275.939 4.95048 276.173 4.96439 276.408L5.72518 281.46C6.26139 283.591 7.41632 284.299 8.18628 284.487L98.1561 316.379C99.3358 316.818 100.603 316.971 101.854 316.824C103.104 316.677 104.301 316.234 105.347 315.533L213.225 247.736C214.496 246.823 215.367 245.456 215.659 243.918L215.869 240.332C215.995 240.186 216.081 240.01 216.118 239.822C216.154 239.633 216.141 239.437 216.079 239.255C216.017 239.073 215.908 238.91 215.764 238.783C215.619 238.656 215.444 238.569 215.255 238.531L119.559 217.428C119.825 216.363 119.777 218.253 119.192 192.045L164.415 169.43V183.839C130.272 189.529 139.264 216.218 171.989 216.069C188.438 216.069 201.32 208.943 201.32 199.843C201.32 192.696 192.938 186.426 180.8 184.334C180.8 184.334 180.8 161.524 180.768 161.252L239.131 132.064C240.026 131.465 240.764 130.659 241.283 129.715C241.801 128.77 242.085 127.715 242.11 126.638L241.784 110.089C243.459 113.946 246.399 117.117 250.118 119.078C249.858 119.725 249.846 120.445 250.085 121.1C250.325 121.755 250.797 122.299 251.413 122.626C264.298 132.177 278.389 144.317 293.004 149.491C294.838 150.39 298.451 150.681 299.916 151.783L298.706 165.945C298.363 167.083 298.431 168.305 298.897 169.398C299.363 170.491 300.198 171.387 301.256 171.928C301.598 172.143 302.001 172.157 301.685 172.581C284.287 232.972 292.241 315.709 299.661 354.865C299.499 356.503 300.594 360.451 303.128 361.368L303.27 364.576C298.967 362.285 293.515 359.388 288.231 359.656C286.671 363.497 289.503 367.541 293.598 371.529C301.804 379.226 307.911 383 312.182 383C322.198 381.905 317.223 368.866 316.371 362.376C317.528 361.623 318.499 360.618 319.21 359.435C319.922 358.253 320.356 356.924 320.48 355.55C324.973 328.613 324.252 311.864 335.308 263.866C336.915 256.18 339.31 248.681 342.458 241.487C352.311 280.072 383.355 327.472 415.518 342.3C415.677 342.379 415.852 342.418 416.029 342.414C416.206 342.41 416.379 342.363 416.534 342.277C416.592 342.462 416.714 342.619 416.877 342.722C425.975 348.203 411.989 358.653 414.256 366.506C415.835 369.64 419.804 368.854 422.123 366.93C429.226 361.936 433.436 353.503 436.754 346.849C440.081 341.262 434.3 337.002 429.742 335.648ZM358.398 57.402C354.85 60.2824 347.169 63.0139 343.012 61.0134C343.177 60.2526 343.365 59.265 343.51 58.1513C348.583 58.9721 353.783 57.9894 358.207 55.374L358.398 57.402ZM334.545 50.5618C341.724 47.1474 337.863 44.244 336.724 46.0268C330.425 54.1045 329.121 37.6903 330.918 27.6946C333.212 27.0961 335.347 26.0009 337.171 24.4865C336.844 26.2006 338.899 27.5503 340.285 27.4953C339.559 30.1832 338.503 34.2186 340.466 36.6362C340.955 36.9697 341.54 37.131 342.13 37.0945C342.183 38.128 342.373 39.1498 342.696 40.133C342.756 40.3911 342.869 40.6338 343.029 40.8456C343.188 41.0574 343.389 41.2336 343.621 41.363C343.852 41.4924 344.108 41.5721 344.371 41.5971C344.635 41.622 344.901 41.5917 345.153 41.5079C347.866 40.2591 346.924 36.1595 348.688 34.8946C350.141 34.379 351.688 36.5239 351.823 37.6696C351.864 38.821 351.48 39.9473 350.745 40.8345C350.01 41.7216 348.975 42.3079 347.836 42.4818C347.68 42.5081 347.531 42.5664 347.398 42.6532C347.266 42.74 347.153 42.8533 347.066 42.986C346.523 44.0172 347.543 45.1996 347.16 46.5493C346.55 48.5269 348.581 52.2208 351.191 51.0453C352.74 53.8249 355.05 54.7552 357.135 52.4064C357.307 51.9229 357.541 52.159 357.916 52.2942C358.001 53.2108 358.026 52.8831 357.797 53.0274C353.616 55.6905 348.597 56.7125 343.707 55.8964C343.707 55.296 343.862 54.5742 343.347 54.1297C343.224 54.0237 343.082 53.944 342.927 53.8955C342.772 53.847 342.61 53.8308 342.449 53.8478C340.964 53.9782 339.47 53.7474 338.093 53.1752C336.717 52.603 335.5 51.7063 334.545 50.5618V50.5618ZM300.928 99.0183C302.466 99.4766 298.612 98.2392 309.531 101.768C308.066 105.665 306.829 109.644 305.825 113.684C305.111 113.244 304.398 112.767 303.685 112.234C304.673 111.262 306.403 110.233 305.777 108.581C305.358 107.128 301.272 104.658 300.179 103.627C300.634 102.96 300.938 102.202 301.067 101.406C301.197 100.61 301.149 99.7944 300.928 99.0183V99.0183ZM301.98 113.824C303.026 114.625 304.121 115.36 305.259 116.024C305.03 117.062 304.826 118.102 304.632 119.142C302.088 118.535 299.512 118.065 296.925 117.676C298.706 116.523 300.396 115.235 301.98 113.824V113.824ZM296.749 100.856C296.838 100.613 296.842 100.346 296.758 100.101C296.675 99.8559 296.51 99.6467 296.29 99.5087C296.795 99.2291 297.111 98.0307 297.814 98.2507C300.793 101.566 296.717 105.38 293.018 104.16C291.621 103.892 290.177 103.995 288.832 104.458C288.637 102.501 290.804 101.104 293.254 101.17C294.441 100.975 296.08 102.35 296.749 100.856V100.856ZM293.635 96.3877L290.848 99.2177C290 99.386 289.205 99.7549 288.53 100.294C287.854 100.832 287.317 101.525 286.964 102.314C284.003 98.033 289.572 95.1663 293.635 96.3922V96.3877ZM6.17432 270.642C4.99647 270.459 2.7187 173.953 2.27873 173.383C2.26752 172.877 2.40619 172.378 2.67732 171.951C2.94845 171.523 3.33993 171.185 3.80259 170.979L112.114 125.483C112.417 125.356 112.744 125.292 113.073 125.294C113.402 125.296 113.727 125.364 114.029 125.495C114.446 125.69 114.8 125.997 115.053 126.381C115.306 126.765 115.447 127.212 115.462 127.672L117.439 216.156C117.472 216.616 117.36 217.074 117.119 217.467C116.878 217.86 116.521 218.168 116.096 218.347L9.23121 271.781C8.96079 271.934 8.66004 272.027 8.35009 272.052C8.04014 272.076 7.72852 272.033 7.43715 271.924C7.14578 271.816 6.88172 271.645 6.66355 271.423C6.44538 271.202 6.27839 270.935 6.17432 270.642V270.642ZM196.089 33.011L208.177 27.9696V40.447L196.13 45.5823C196.13 31.8033 196.151 33.341 196.089 32.9995V33.011ZM222.813 36.6912L223.729 64.4874C223.532 64.4232 162.195 92.4691 161.977 92.5333L161.026 63.0254L222.813 36.6912ZM210.464 27.0072L222.325 22.0529L222.73 34.2346L210.468 39.4616C210.464 39.4249 210.477 27.0141 210.464 26.9957V27.0072ZM163.022 124.807L162.062 95.0173L223.816 66.9049L224.733 94.5659L163.022 124.807ZM224.827 97.0591L225.714 123.723L163.948 153.554L163.102 127.314L224.827 97.0591ZM130.302 120.194L118.14 144.943C117.998 144.393 118.024 125.627 117.432 126.001C117.205 125.415 116.862 124.88 116.424 124.428C115.986 123.977 115.462 123.617 114.883 123.372C114.303 123.126 113.681 123 113.052 122.999C112.423 122.998 111.8 123.124 111.22 123.368L103.349 126.675L102.001 88.1748C102.095 87.9801 130.242 120.224 130.302 120.194ZM104.293 87.2009L157.699 64.4369L131.395 117.969L104.293 87.2009ZM118.624 149.166L131.942 122.057L160.958 154.998L118.819 175.349C118.152 145.47 118.09 150.255 118.624 149.166ZM133.035 119.835L158.877 67.2372C159.425 85.4754 161.003 133.116 161.613 152.273L133.035 119.835ZM193.839 46.5378C193.032 46.3866 102.657 86.3462 101.907 85.2371L101.463 72.5214L193.839 33.939V46.5378ZM211.807 240.112L103.218 306.617C102.055 307.24 100.696 307.394 99.4233 307.045L9.00664 276.025L118.741 219.589L211.807 240.112ZM180.8 186.651C191.451 188.589 199.029 193.997 199.029 199.839C197.979 218.281 145.407 218.255 144.949 199.591C144.798 193.422 153.033 187.916 164.413 186.147C164.413 193.592 163.939 197.552 166.288 198.828C166.903 199.111 167.585 199.217 168.257 199.134C168.929 199.05 169.564 198.781 170.092 198.356C181.348 191.848 180.8 192.336 180.8 186.651ZM166.707 168.28L178.508 162.377V189.199C178.508 190.48 177.512 191.19 175.596 192.432C174.679 192.785 168.286 197.224 167.42 196.825C166.249 196.454 166.707 168.28 166.707 168.28V168.28ZM237.973 130.082L119.135 189.506L118.876 177.867L227.375 125.463C227.575 125.366 227.743 125.214 227.858 125.024C227.973 124.834 228.031 124.614 228.024 124.392C224.531 13.3612 224.815 19.8989 224.034 19.3787C223.062 18.2329 100.853 70.8211 99.8472 70.7088C99.6323 70.7986 99.4498 70.9517 99.3241 71.1478C99.1985 71.3439 99.1355 71.5737 99.1437 71.8065L101.085 127.633L85.2961 134.264L83.1374 68.3073C83.1468 67.5855 83.3643 66.8817 83.7638 66.2805C84.1634 65.6793 84.7281 65.2062 85.39 64.9182L231.747 5.33853C232.232 5.1573 232.749 5.07642 233.266 5.1008C233.783 5.12519 234.289 5.25433 234.755 5.48038C235.221 5.70644 235.636 6.02471 235.974 6.4159C236.313 6.80708 236.569 7.26303 236.727 7.75609C237.268 10.5449 238.035 49.7368 239.053 86.085L231.014 90.5466C230.187 91.2088 228.441 92.7235 229.525 94.087C232.453 97.4556 235.744 100.49 239.339 103.136L239.82 126.656C239.801 127.33 239.626 127.991 239.306 128.585C238.987 129.179 238.534 129.69 237.983 130.078L237.973 130.082ZM239.282 94.4651C239.282 94.4651 260.822 82.8929 260.96 82.8585C261.45 83.0281 273.009 91.5869 278.394 95.2579C280.271 96.671 282.264 97.9236 284.352 99.0023C284.12 100.93 284.653 102.873 285.836 104.413C285.149 105.542 284.404 107.036 284.73 107.362C285.055 107.687 286.551 107.094 287.738 106.498C288.07 106.656 288.432 106.739 288.8 106.742C289.167 106.745 289.531 106.668 289.865 106.516C291.536 106.24 293.248 106.325 294.883 106.766L296.531 108.113C293.483 110.668 289.546 114.042 286.939 116.416C285.222 116.223 283.522 116.026 281.84 115.824C282.571 115.366 283.653 114.564 282.935 113.611C281.902 112.144 279.874 114.635 278.618 115.336C276.425 115.034 273.577 114.559 273.577 114.559C274.571 113.786 275.634 113.105 276.753 112.525C276.884 112.449 276.998 112.349 277.09 112.23C277.182 112.11 277.25 111.974 277.289 111.828C277.328 111.682 277.339 111.53 277.319 111.381C277.3 111.231 277.251 111.087 277.176 110.956C277.1 110.825 277 110.711 276.881 110.619C276.761 110.527 276.625 110.459 276.479 110.42C276.333 110.38 276.181 110.37 276.032 110.39C275.882 110.409 275.738 110.458 275.607 110.533C273.836 111.506 272.174 112.668 270.653 113.998C266.025 113.037 261.565 111.393 257.419 109.122L251.409 104.197C251.208 103.155 250.629 102.224 249.783 101.582C248.937 100.941 247.883 100.635 246.826 100.723L239.282 94.4651ZM250.95 117.016C248.585 115.655 246.589 113.738 245.134 111.429C243.879 109.415 240.895 103.601 244.953 106.846C245.377 108.155 245.806 110.513 247.511 109.745C247.77 109.588 247.957 109.334 248.03 109.039C248.102 108.744 248.055 108.433 247.898 108.173C246.828 106.381 246.179 101.942 248.127 103.198C249.603 103.991 249.339 106.431 249.766 107.925C250.042 108.89 250.506 109.79 251.133 110.574C251.759 111.358 252.534 112.01 253.414 112.492C252.464 113.927 251.64 115.44 250.95 117.016V117.016ZM348.684 236.326C347.196 238.254 345.996 240.388 345.121 242.66C344.795 240.683 343.342 238.577 344.58 236.727C347.88 229.907 353.388 224.401 360.21 221.104C367.046 216.885 372.357 210.596 375.371 203.15C376.652 202.297 377.662 202.057 377.568 203.587C376.663 219.717 355.914 223.879 348.686 236.331L348.684 236.326ZM381.292 171.421C372.964 176.528 363.444 179.366 353.679 179.655C343.776 179.858 333.881 178.948 324.181 176.944C316.556 175.973 309.176 173.604 302.411 169.957C301.75 169.649 301.231 169.101 300.958 168.425C300.686 167.749 300.68 166.994 300.942 166.314L302.18 151.973C332.788 159.386 350.047 127.715 361.145 105.671C361.284 105.4 361.31 105.086 361.218 104.797C361.125 104.507 360.921 104.266 360.651 104.127C360.381 103.988 360.067 103.962 359.777 104.055C359.488 104.147 359.247 104.351 359.108 104.621C351.775 118.829 340.709 140.273 324.776 147.874C298.213 158.089 274.876 137.463 252.593 120.687C251.972 120.508 252.316 119.784 252.41 119.401C253.445 116.518 254.999 113.848 256.993 111.523C273.249 120.297 293.341 117 310.525 123.279C310.67 123.332 310.824 123.355 310.978 123.348C311.131 123.34 311.282 123.302 311.421 123.235C311.559 123.167 311.683 123.073 311.784 122.957C311.886 122.841 311.962 122.706 312.01 122.559C311.311 118.913 319.041 101.358 321.105 96.2387C327.162 84.7925 336.355 68.9512 351.221 69.1987C351.524 69.1987 351.816 69.078 352.031 68.8631C352.246 68.6483 352.366 68.3568 352.366 68.053C352.366 67.7491 352.246 67.4577 352.031 67.2428C351.816 67.0279 351.524 66.9072 351.221 66.9072C335.201 66.9393 325.567 82.8631 319.02 95.2786C318.926 95.4894 310.901 114.069 309.765 120.584C308.798 120.261 307.819 119.97 306.836 119.699C310.337 99.9693 323.5 71.3298 341.832 63.1491C343.428 63.6336 345.079 63.9154 346.745 63.9878C351.242 63.7808 355.581 62.2678 359.232 59.6339C375.481 67.5557 380.518 86.6212 382.475 103.065C385.311 124.577 385.638 146.346 383.451 167.934C383.489 168.666 383.303 169.392 382.917 170.015C382.531 170.639 381.964 171.129 381.292 171.421V171.421Z" fill="#121D2F"/>
<path d="M252.644 94.3528C253.102 94.3528 252.71 94.4467 259.184 90.471C259.431 90.3054 259.604 90.0503 259.666 89.7595C259.729 89.4686 259.676 89.165 259.518 88.9126C259.361 88.6603 259.111 88.479 258.823 88.4072C258.534 88.3354 258.229 88.3786 257.972 88.5277L252.036 92.2377C251.827 92.37 251.665 92.5668 251.577 92.7987C251.488 93.0305 251.478 93.2847 251.546 93.5232C251.615 93.7617 251.759 93.9715 251.957 94.1211C252.154 94.2707 252.396 94.352 252.644 94.3528Z" fill="#121D2F"/>
<path d="M251.695 100.689L266.528 91.7886C266.665 91.7155 266.786 91.6153 266.883 91.4942C266.98 91.3731 267.051 91.2335 267.092 91.084C267.134 90.9345 267.145 90.7781 267.124 90.6243C267.103 90.4705 267.051 90.3226 266.971 90.1895C266.892 90.0563 266.786 89.9408 266.66 89.8498C266.534 89.7588 266.391 89.6943 266.24 89.6602C266.089 89.6261 265.932 89.6231 265.779 89.6514C265.627 89.6797 265.482 89.7386 265.353 89.8247L250.517 98.725C250.382 98.7993 250.264 98.9001 250.169 99.0212C250.074 99.1424 250.004 99.2814 249.964 99.4301C249.924 99.5788 249.914 99.7341 249.935 99.8866C249.956 100.039 250.008 100.186 250.087 100.318C250.167 100.45 250.272 100.565 250.396 100.655C250.521 100.746 250.662 100.81 250.812 100.845C250.962 100.88 251.118 100.884 251.27 100.857C251.421 100.83 251.566 100.773 251.695 100.689V100.689Z" fill="#121D2F"/>
<path d="M263.923 100.746C263.841 100.62 263.735 100.511 263.611 100.426C263.487 100.34 263.347 100.28 263.2 100.249C263.052 100.218 262.9 100.216 262.752 100.243C262.604 100.271 262.463 100.327 262.337 100.409L257.392 103.617C257.137 103.783 256.958 104.043 256.895 104.341C256.832 104.638 256.889 104.948 257.055 105.203C257.221 105.458 257.481 105.637 257.778 105.7C258.075 105.763 258.386 105.706 258.641 105.54L263.586 102.332C263.712 102.25 263.821 102.144 263.906 102.02C263.992 101.896 264.052 101.756 264.083 101.609C264.114 101.462 264.116 101.31 264.089 101.162C264.061 101.014 264.005 100.872 263.923 100.746Z" fill="#121D2F"/>
<path d="M265.508 103.235L260.804 106.704C260.559 106.885 260.396 107.155 260.35 107.456C260.305 107.757 260.38 108.063 260.561 108.308C260.741 108.553 261.012 108.716 261.313 108.762C261.613 108.807 261.92 108.732 262.165 108.551L266.865 105.089C267.08 104.899 267.216 104.635 267.246 104.349C267.276 104.064 267.197 103.777 267.026 103.547C266.855 103.316 266.604 103.158 266.322 103.104C266.04 103.05 265.748 103.104 265.504 103.255L265.508 103.235Z" fill="#121D2F"/>
<path d="M273.254 100.618L273.996 95.675C274.025 95.5234 274.024 95.3675 273.991 95.2165C273.959 95.0656 273.896 94.9229 273.807 94.7968C273.718 94.6707 273.604 94.564 273.472 94.4829C273.341 94.4019 273.195 94.3483 273.042 94.3252C272.889 94.3022 272.734 94.3103 272.584 94.349C272.435 94.3876 272.295 94.4561 272.172 94.5503C272.05 94.6445 271.948 94.7624 271.872 94.897C271.797 95.0316 271.749 95.1801 271.732 95.3336L271.15 99.2039C270.176 99.071 268.84 97.9047 268.128 99.2039C267.044 101.159 273.162 102.655 273.254 100.618Z" fill="#121D2F"/>
<path d="M271.361 107.543L266.663 110.751C266.425 110.927 266.263 111.189 266.214 111.482C266.164 111.774 266.23 112.075 266.398 112.32C266.565 112.565 266.821 112.735 267.112 112.795C267.402 112.855 267.705 112.8 267.956 112.641L272.653 109.433C272.892 109.257 273.053 108.995 273.103 108.703C273.153 108.41 273.087 108.11 272.919 107.865C272.752 107.62 272.496 107.449 272.205 107.389C271.914 107.329 271.612 107.384 271.361 107.543Z" fill="#121D2F"/>
<path d="M280.846 107.685C281.935 105.567 282.849 103.364 283.577 101.097C283.636 100.955 283.666 100.802 283.665 100.648C283.664 100.494 283.632 100.341 283.571 100.2C283.51 100.059 283.421 99.9311 283.309 99.825C283.197 99.7188 283.065 99.6363 282.921 99.5823C282.777 99.5284 282.623 99.5041 282.469 99.5109C282.315 99.5177 282.164 99.5555 282.025 99.622C281.886 99.6885 281.762 99.7823 281.66 99.8979C281.558 100.014 281.481 100.148 281.432 100.295L279.629 105.107L279.111 104.589C278.077 103.526 276.398 105.205 277.491 106.211C278.288 106.933 279.496 108.796 280.846 107.685Z" fill="#121D2F"/>
<path d="M17.4829 260.447C17.4829 260.447 109.602 214.319 109.703 214.213C109.897 214.116 110.059 213.966 110.171 213.78C110.283 213.594 110.34 213.381 110.335 213.164L108.605 135.284C108.601 135.097 108.552 134.914 108.461 134.751C108.37 134.588 108.24 134.449 108.083 134.347C107.926 134.246 107.747 134.184 107.561 134.167C107.375 134.151 107.187 134.18 107.015 134.253L13.5484 173.564C13.3339 173.654 13.1519 173.807 13.0266 174.003C12.9014 174.199 12.8388 174.429 12.8472 174.662C14.992 237.779 15.4549 254.322 15.8262 258.726C15.9384 260.007 16.3418 261.024 17.4829 260.447ZM18.3491 257.45L38.6887 214.177L60.1878 236.471L18.3491 257.45ZM38.0333 210.196L16.7382 188.113L56.487 170.94L38.0333 210.196ZM58.2125 172.652L60.1488 233.132L39.7336 211.961L58.2125 172.652ZM108.028 212.492L62.5137 235.309L61.9248 216.977L107.631 194.589L108.028 212.492ZM107.57 192.059L61.84 214.456L61.1525 193.01L107.118 171.797L107.57 192.059ZM107.065 169.297L61.0746 190.523L60.3871 169.251C60.3871 169.251 106.355 149.349 106.626 149.281L107.065 169.297ZM98.2844 140.41L106.353 137.019L106.571 146.808L98.0575 150.475C98.5043 140.202 98.5639 140.868 98.2844 140.41ZM96.1624 141.304L95.7179 151.497L88.3323 154.686C88.3323 144.322 88.3941 145.062 88.1787 144.661L96.1624 141.304ZM15.1754 175.37L86.0407 145.561V155.676L15.5512 186.128L15.1754 175.37ZM36.9884 212.417L17.9023 253.036L15.6978 190.345L36.9884 212.417Z" fill="#121D2F"/>
<path d="M30.0015 275.608L76.9778 289.206C77.9586 289.79 166.235 239.021 167.113 238.914C167.315 238.801 167.478 238.629 167.581 238.422C167.684 238.214 167.721 237.98 167.689 237.751C167.656 237.522 167.554 237.308 167.397 237.137C167.241 236.967 167.036 236.848 166.81 236.796L122.059 226.413C121.206 225.969 30.579 273.39 29.7953 273.486C29.5905 273.59 29.4219 273.754 29.3115 273.956C29.2011 274.158 29.1539 274.388 29.1762 274.617C29.1984 274.846 29.289 275.063 29.4362 275.24C29.5834 275.416 29.7804 275.545 30.0015 275.608V275.608ZM163.414 238.364L77.1542 286.871L64.2484 283.133L152.002 235.717L163.414 238.364ZM148.631 234.926C148.07 235.632 61.6017 281.176 61.6085 282.361L47.9969 278.422C48.4414 277.989 137.208 232.995 137.35 232.307L148.631 234.926ZM121.949 228.739L134.179 231.576C133.606 232.264 45.3158 276.458 45.2975 277.636L33.4113 274.198L121.949 228.739Z" fill="#121D2F"/>
<path d="M165.052 259.045C145.574 255.358 147 255.165 146.47 255.449L121.002 269.297C120.804 269.405 120.642 269.569 120.536 269.769C120.431 269.969 120.386 270.196 120.41 270.42C120.433 270.645 120.522 270.858 120.665 271.033C120.809 271.207 121.001 271.335 121.218 271.401C139.264 276.554 138.562 276.854 139.188 276.483L165.396 261.153C165.595 261.036 165.754 260.861 165.852 260.652C165.95 260.443 165.983 260.209 165.946 259.981C165.909 259.753 165.803 259.542 165.644 259.375C165.485 259.208 165.278 259.093 165.052 259.045ZM138.471 274.253L124.509 270.003L147.195 257.663L161.668 260.681L138.471 274.253Z" fill="#121D2F"/>
<path d="M82.3126 175.555C82.422 175.701 82.5647 175.818 82.7286 175.898C82.8925 175.977 83.0731 176.017 83.2552 176.012C83.4374 176.008 83.6159 175.96 83.776 175.873C83.936 175.786 84.073 175.662 84.1756 175.512L92.5832 163.151C92.7444 162.9 92.8013 162.596 92.7418 162.304C92.6822 162.011 92.5109 161.753 92.2643 161.585C92.0178 161.417 91.7153 161.352 91.4214 161.404C91.1274 161.455 90.8652 161.619 90.6904 161.861L83.1833 172.897L81.1805 170.225C80.9982 169.982 80.7268 169.821 80.426 169.778C80.1251 169.735 79.8196 169.814 79.5765 169.996C79.3334 170.178 79.1727 170.45 79.1297 170.751C79.0867 171.051 79.165 171.357 79.3473 171.6L82.3126 175.555Z" fill="#121D2F"/>
<path d="M85.8483 196.772C87.1957 196.598 86.2195 195.462 93.5341 185.95C93.6287 185.831 93.6986 185.694 93.7398 185.547C93.781 185.401 93.7927 185.248 93.7742 185.097C93.7556 184.946 93.7072 184.8 93.6318 184.668C93.5564 184.536 93.4554 184.421 93.3348 184.328C93.2142 184.236 93.0764 184.168 92.9294 184.129C92.7824 184.09 92.6291 184.081 92.4786 184.102C92.328 184.123 92.1831 184.174 92.0523 184.252C91.9215 184.329 91.8075 184.432 91.7169 184.554C89.4332 187.457 87.3463 190.511 85.4702 193.693C84.6774 193.058 83.2176 190.368 81.9573 191.58C81.8466 191.682 81.7572 191.805 81.6941 191.942C81.6309 192.078 81.5954 192.226 81.5894 192.377C81.5834 192.527 81.6072 192.677 81.6593 192.819C81.7114 192.96 81.7909 193.089 81.8931 193.2C82.6814 193.858 84.9982 197.139 85.8483 196.772Z" fill="#121D2F"/>
<path d="M85.9606 218.214C86.0597 218.385 86.2014 218.528 86.3718 218.628C86.5423 218.728 86.7358 218.783 86.9335 218.786C87.1312 218.789 87.3263 218.741 87.5 218.646C87.6736 218.552 87.8199 218.414 87.9245 218.246L93.6098 209.099C93.7705 208.841 93.8222 208.529 93.7534 208.233C93.6847 207.937 93.5011 207.68 93.2431 207.52C92.9851 207.359 92.6738 207.307 92.3777 207.376C92.0816 207.445 91.825 207.628 91.6642 207.886L86.9849 215.414L85.2205 212.369C85.0619 212.119 84.8132 211.941 84.5261 211.87C84.2391 211.8 83.936 211.843 83.6802 211.991C83.4243 212.139 83.2355 212.38 83.1532 212.664C83.0708 212.948 83.1013 213.252 83.2383 213.514L85.9606 218.214Z" fill="#121D2F"/>
<path d="M190.857 71.4719C190.968 71.6166 191.111 71.733 191.275 71.8114C191.439 71.8899 191.62 71.9281 191.801 71.9229C191.983 71.9178 192.161 71.8694 192.321 71.7818C192.48 71.6942 192.616 71.5699 192.718 71.4192L203.846 54.8538C204.015 54.6016 204.078 54.2923 204.019 53.9941C203.961 53.6958 203.786 53.433 203.534 53.2635C203.282 53.0939 202.973 53.0315 202.674 53.0899C202.376 53.1484 202.113 53.3229 201.944 53.5751L191.71 68.8115L188.731 64.893C188.547 64.6499 188.274 64.4899 187.971 64.4482C187.669 64.4065 187.363 64.4865 187.12 64.6707C186.877 64.8548 186.717 65.128 186.675 65.4301C186.634 65.7322 186.714 66.0385 186.898 66.2816L190.857 71.4719Z" fill="#121D2F"/>
<path d="M204.24 84.8819C200.958 88.8126 198.037 93.0307 195.511 97.4853L192.624 94.2382C192.524 94.1257 192.403 94.0339 192.267 93.9682C192.132 93.9026 191.985 93.8642 191.834 93.8554C191.684 93.8465 191.533 93.8674 191.391 93.9168C191.249 93.9661 191.118 94.0431 191.005 94.1431C190.893 94.2432 190.801 94.3644 190.735 94.4999C190.67 94.6354 190.631 94.7826 190.622 94.9329C190.614 95.0832 190.634 95.2338 190.684 95.3761C190.733 95.5184 190.81 95.6495 190.91 95.7621C191.451 96.1654 195.007 100.918 195.722 100.595C195.927 100.595 196.129 100.54 196.305 100.435C196.482 100.331 196.627 100.181 196.726 100.001C199.36 95.1538 202.465 90.577 205.995 86.337C206.154 86.1013 206.219 85.8152 206.178 85.5341C206.138 85.253 205.994 84.9969 205.776 84.8157C205.557 84.6344 205.279 84.5408 204.995 84.5531C204.711 84.5653 204.442 84.6825 204.24 84.8819Z" fill="#121D2F"/>
<path d="M197.214 129.718C197.314 129.885 197.455 130.024 197.624 130.121C197.793 130.218 197.983 130.271 198.178 130.274C198.373 130.278 198.565 130.231 198.737 130.139C198.909 130.048 199.054 129.914 199.16 129.75L206.825 117.882C206.99 117.627 207.047 117.317 206.983 117.019C206.919 116.722 206.74 116.463 206.485 116.298C206.229 116.133 205.919 116.076 205.622 116.14C205.325 116.203 205.065 116.383 204.9 116.638L198.245 126.961L195.482 122.358C195.322 122.103 195.07 121.921 194.778 121.851C194.486 121.781 194.178 121.829 193.92 121.983C193.663 122.138 193.477 122.387 193.401 122.678C193.326 122.969 193.368 123.278 193.518 123.538L197.214 129.718Z" fill="#121D2F"/>
<path d="M171.18 332.534L139.287 319.676C118.404 326.938 77.4315 344.042 76.1918 344.129C76.0286 344.183 75.8798 344.274 75.7571 344.394C75.6344 344.514 75.5409 344.661 75.4838 344.824C75.4267 344.986 75.4075 345.159 75.4278 345.33C75.448 345.5 75.5071 345.664 75.6006 345.809C75.6602 347.413 74.7734 349.904 75.9512 351.134L107.102 370.42C107.266 370.522 107.454 370.58 107.647 370.59C107.84 370.6 108.033 370.561 108.207 370.477L171.253 339.819C171.447 339.724 171.61 339.578 171.723 339.395C171.837 339.213 171.898 339.002 171.897 338.787V333.845C171.937 333.578 171.888 333.306 171.758 333.069C171.629 332.832 171.426 332.645 171.18 332.534V332.534ZM107.762 361.728L79.3472 345.366C90.2274 341.138 133.656 324.016 138.842 321.972L167.867 333.673L107.762 361.728Z" fill="#121D2F"/>
<path d="M87.3699 344.855C87.1501 344.917 86.9538 345.044 86.8064 345.218C86.6589 345.393 86.567 345.607 86.5423 345.834C86.5177 346.061 86.5615 346.291 86.6681 346.493C86.7748 346.695 86.9394 346.86 87.1407 346.968L108.899 358.588C109.644 358.987 106.665 359.26 154.915 337.85C155.116 337.757 155.286 337.608 155.405 337.42C155.523 337.233 155.584 337.015 155.581 336.793C155.578 336.571 155.51 336.355 155.387 336.171C155.263 335.987 155.089 335.843 154.885 335.756L132.886 326.36C115.886 332.389 88.6119 344.816 87.3699 344.855ZM109.476 356.299L90.4016 346.113C92.1363 345.41 94.7074 344.353 97.7207 343.109L117.428 352.63L109.476 356.299ZM120.12 351.386L100.558 341.934C111.264 337.499 125.879 331.393 132.426 328.659L151.613 336.851L120.12 351.386Z" fill="#121D2F"/>
<path d="M121.305 340.609C118.759 340.795 111.039 340.527 111.546 343.045C111.585 343.19 111.653 343.327 111.745 343.446C111.837 343.565 111.952 343.665 112.083 343.74C112.214 343.814 112.359 343.862 112.508 343.881C112.658 343.9 112.809 343.889 112.955 343.849C115.31 343.247 117.729 342.933 120.159 342.914C120.265 343.9 119.66 346.381 121.305 346.352C121.609 346.352 121.9 346.231 122.115 346.016C122.33 345.801 122.451 345.51 122.451 345.206V341.746C122.448 341.443 122.327 341.154 122.112 340.941C121.897 340.729 121.607 340.609 121.305 340.609Z" fill="#121D2F"/>
<path d="M125.375 337.461C127.529 337.266 129.676 337.231 131.83 337.094C131.641 337.894 131.545 338.713 131.544 339.534C131.544 339.838 131.664 340.13 131.879 340.345C132.094 340.559 132.385 340.68 132.689 340.68C132.993 340.68 133.285 340.559 133.5 340.345C133.714 340.13 133.835 339.838 133.835 339.534C133.551 338.114 134.981 336.413 134.351 335.142C134.234 334.984 134.078 334.859 133.898 334.778C133.719 334.698 133.522 334.665 133.326 334.683C130.609 334.931 127.889 334.931 125.169 335.178C125.019 335.192 124.873 335.235 124.74 335.304C124.606 335.374 124.488 335.47 124.392 335.585C124.295 335.701 124.223 335.834 124.178 335.978C124.133 336.122 124.117 336.273 124.131 336.422C124.144 336.572 124.187 336.718 124.257 336.851C124.327 336.985 124.422 337.103 124.538 337.199C124.653 337.296 124.787 337.368 124.93 337.413C125.074 337.458 125.225 337.474 125.375 337.461V337.461Z" fill="#121D2F"/>
<path d="M147.935 330.446C152.488 330.675 151.248 327.263 148.047 328.233C146.507 328.805 146.015 330.196 147.935 330.446Z" fill="#121D2F"/>
</svg>
